<svg id="Lager_1" data-name="Lager 1" xmlns="http://www.w3.org/2000/svg" xmlns:xlink="http://www.w3.org/1999/xlink" viewBox="0 0 19.00943 17.69786"><defs><style>.cls-1{fill:#1bce11;}.cls-2,.cls-3,.cls-4,.cls-5,.cls-6,.cls-7,.cls-8,.cls-9{stroke-miterlimit:10;stroke-width:0.25px;}.cls-2{fill:url(#Ny_övertoningsruta_2);stroke:url(#Ny_övertoningsruta_2-2);}.cls-3{fill:url(#Ny_övertoningsruta_2-3);stroke:url(#Ny_övertoningsruta_2-4);}.cls-4{fill:url(#Ny_övertoningsruta_2-5);stroke:url(#Ny_övertoningsruta_2-6);}.cls-5{fill:url(#Ny_övertoningsruta_2-7);stroke:url(#Ny_övertoningsruta_2-8);}.cls-6{fill:url(#Ny_övertoningsruta_2-9);stroke:url(#Ny_övertoningsruta_2-10);}.cls-7{fill:url(#Ny_övertoningsruta_2-11);stroke:url(#Ny_övertoningsruta_2-12);}.cls-8{fill:url(#Ny_övertoningsruta_2-13);stroke:url(#Ny_övertoningsruta_2-14);}.cls-9{fill:url(#Ny_övertoningsruta_2-15);stroke:url(#Ny_övertoningsruta_2-16);}</style><linearGradient id="Ny_övertoningsruta_2" x1="15.47902" y1="15.41813" x2="17.84737" y2="15.41813" gradientUnits="userSpaceOnUse"><stop offset="0" stop-color="#078400"/><stop offset="1" stop-color="#09ba00"/></linearGradient><linearGradient id="Ny_övertoningsruta_2-2" x1="38.01428" y1="-16.50921" x2="40.63263" y2="-16.50921" gradientTransform="matrix(1, 0, 0, -1, -22.66026, -1.09108)" xlink:href="#Ny_övertoningsruta_2"/><linearGradient id="Ny_övertoningsruta_2-3" x1="13.40717" y1="13.42878" x2="16.27184" y2="13.42878" xlink:href="#Ny_övertoningsruta_2"/><linearGradient id="Ny_övertoningsruta_2-4" x1="35.94243" y1="-14.51986" x2="39.0571" y2="-14.51986" gradientTransform="matrix(1, 0, 0, -1, -22.66026, -1.09108)" xlink:href="#Ny_övertoningsruta_2"/><linearGradient id="Ny_övertoningsruta_2-5" x1="10.18116" y1="11.14559" x2="12.73745" y2="11.14559" xlink:href="#Ny_övertoningsruta_2"/><linearGradient id="Ny_övertoningsruta_2-6" x1="32.71642" y1="-12.23667" x2="35.52271" y2="-12.23667" gradientTransform="matrix(1, 0, 0, -1, -22.66026, -1.09108)" xlink:href="#Ny_övertoningsruta_2"/><linearGradient id="Ny_övertoningsruta_2-7" x1="11.4749" y1="9.80154" x2="14.21484" y2="9.80154" xlink:href="#Ny_övertoningsruta_2"/><linearGradient id="Ny_övertoningsruta_2-8" x1="34.01016" y1="-10.89262" x2="37.05194" y2="-10.89262" gradientTransform="matrix(1, 0, 0, -1, -22.66026, -1.09108)" xlink:href="#Ny_övertoningsruta_2"/><linearGradient id="Ny_övertoningsruta_2-9" x1="3.4826" y1="3.98726" x2="8.83156" y2="3.98726" xlink:href="#Ny_övertoningsruta_2"/><linearGradient id="Ny_övertoningsruta_2-10" x1="26.01786" y1="-5.07834" x2="31.61682" y2="-5.07834" gradientTransform="matrix(1, 0, 0, -1, -22.66026, -1.09108)" xlink:href="#Ny_övertoningsruta_2"/><linearGradient id="Ny_övertoningsruta_2-11" x1="4.78571" y1="6.79522" x2="15.52958" y2="6.79522" xlink:href="#Ny_övertoningsruta_2"/><linearGradient id="Ny_övertoningsruta_2-12" x1="27.26932" y1="-7.8863" x2="38.31484" y2="-7.8863" gradientTransform="matrix(1, 0, 0, -1, -22.66026, -1.09108)" xlink:href="#Ny_övertoningsruta_2"/><linearGradient id="Ny_övertoningsruta_2-13" x1="2.7257" y1="13.42884" x2="5.59333" y2="13.42884" xlink:href="#Ny_övertoningsruta_2"/><linearGradient id="Ny_övertoningsruta_2-14" x1="25.26096" y1="-14.51992" x2="28.37858" y2="-14.51992" gradientTransform="matrix(1, 0, 0, -1, -22.66026, -1.09108)" xlink:href="#Ny_övertoningsruta_2"/><linearGradient id="Ny_övertoningsruta_2-15" x1="1.15002" y1="15.41442" x2="3.53083" y2="15.41442" xlink:href="#Ny_övertoningsruta_2"/><linearGradient id="Ny_övertoningsruta_2-16" x1="23.68528" y1="-16.5055" x2="26.31609" y2="-16.5055" gradientTransform="matrix(1, 0, 0, -1, -22.66026, -1.09108)" xlink:href="#Ny_övertoningsruta_2"/></defs><title>1v1-swords-fill2</title><path class="cls-1" d="M18.90721,14.25775l-.003-.003-.88815-.977a.44335.44335,0,0,0-.29605-.14506.42748.42748,0,0,0-.31974.11841l-.21611.19837a.21551.21551,0,0,1-.30445-.01431l-.00047-.00051-1.86216-2.022a.21814.21814,0,0,1,.01185-.30494L16.6868,9.57417a.4441.4441,0,0,0-.5921-.65427l-1.05986.977a.21551.21551,0,0,1-.30445-.01431l-.00047-.00051L12.80564,7.792a.2173.2173,0,0,1,0-.29012l3.05818-3.34239a.20106.20106,0,0,1,.02072-.03258.32792.32792,0,0,0,.05034-.08881.25119.25119,0,0,0,.02664-.06512V3.93451l.61876-3.443V.28723L16.56252.23691,16.54179.20138A.24773.24773,0,0,0,16.5181.16586a.11819.11819,0,0,0-.0296-.03554l-.03258-.0296-.03847-.0296L16.38784.0504l-.0444-.02369h-.03258L16.2546.00892h-.20427L12.66945.89706l-.06218.02369a.43046.43046,0,0,0-.1332.09769L9.65864,4.02629a.21667.21667,0,0,1-.30632.00766l-.01046-.01066L6.562,1.00655A.42216.42216,0,0,0,6.43169.91181H6.41393L6.35472.88812,2.97384,0h-.2161L2.69853.01776h-.0296a.23515.23515,0,0,0-.04738.02367L2.592.06215,2.54161.10064V.1184A.31409.31409,0,0,0,2.512.15393a.22237.22237,0,0,0-.02072.03552L2.4676.225,2.44984.27532V.47959l.5773,3.46969v.03849a.24989.24989,0,0,0,.02665.06512.27314.27314,0,0,0,.05328.08883.04193.04193,0,0,0,.01777.03256l3.0641,3.32759a.2173.2173,0,0,1,0,.29012L4.26462,9.8821a.21552.21552,0,0,1-.30441.01525l-.00047-.00043-1.05986-.977a.44366.44366,0,0,0-.66888.583l.00277.00315a.4048.4048,0,0,0,.074.06808l1.54538,1.421.29605.27238-2.00722,2.17a.21809.21809,0,0,1-.30492.01186l-.21613-.19838a.41884.41884,0,0,0-.59231-.00438l-.02348.02511-.88814.977a.44445.44445,0,0,0,.02665.62763l2.9072,2.69108A.43387.43387,0,0,0,3.66419,17.55l.00836-.00911.88815-.977a.43919.43919,0,0,0,.11843-.31972.45333.45333,0,0,0-.1421-.296l-.21613-.19836a.21277.21277,0,0,1-.016-.30048l.00411-.00444,1.86215-2.022a.21554.21554,0,0,1,.30444-.01524l.0005.00045,1.69039,1.54841a.44365.44365,0,1,0,.66751-.58458l-.0014-.00159a.40315.40315,0,0,0-.074-.06809l-1.05984-.977a.21551.21551,0,0,1-.01526-.30441l.00046-.00051L9.32115,11.241a.22009.22009,0,0,1,.31112-.00862l.00862.00862L11.278,13.02321a.21192.21192,0,0,1-.00927.29957l-.00257.00238-1.04506.98585a.44411.44411,0,0,0,.5921.65428l1.68155-1.54837a.21553.21553,0,0,1,.30447.01431l.00045.0005,1.86215,2.022a.21279.21279,0,0,1-.00741.30084l-.00443.0041-.20724.18947a.44708.44708,0,0,0-.02367.62762l.88814.977a.44339.44339,0,0,0,.29606.14507h.01776a.44007.44007,0,0,0,.29605-.11843l2.93088-2.697a.44246.44246,0,0,0,.06078-.62276ZM3.92416,3.70062a.21634.21634,0,0,1-.05625-.10954L3.486,1.35292a.21552.21552,0,0,1,.26941-.24571l2.19372.58025a.1796.1796,0,0,1,.10363.06218L8.7764,4.70716a.21419.21419,0,0,1-.003.29013L7.1126,6.80616a.22.22,0,0,1-.311.00871l-.00871-.00871Zm-.447,12.75084-.00593.00593a.21407.21407,0,0,1-.30186.02314l-.006-.00538-1.945-1.8a.21808.21808,0,0,1-.01184-.30492l.003-.003a.2163.2163,0,0,1,.30557-.014l.00233.00215.20131.19242L3.24337,15.9511l.21611.19836a.21484.21484,0,0,1,.01765.302Zm2.05751-3.62954-1.86512,2.025a.21808.21808,0,0,1-.30492.01184l-.56841-.51809a.21276.21276,0,0,1-.016-.30048l.00411-.00444,1.86513-2.025a.2181.2181,0,0,1,.30492-.01183l.56841.51808a.21279.21279,0,0,1,.01594.3005Zm1.51577-.40264a.21554.21554,0,0,1-.30444.01525l-.0005-.00045L6.331,12.04922a.21554.21554,0,0,1-.01526-.30443l.00045-.00049,4.72791-5.13054a.44427.44427,0,0,0-.65427-.5921L5.66493,11.14331a.21643.21643,0,0,1-.30576.01383l-.00214-.002-.27532-.25462-.296-.27236,8.17391-8.87851a.17958.17958,0,0,1,.10363-.06218l2.19668-.58025a.21534.21534,0,0,1,.26645.24571l-.39375,2.23813a.253.253,0,0,1-.05328.10954Zm5.616-.36117-.41152.3819a.2164.2164,0,0,1-.30587-.00967l-.002-.00217-1.70816-1.85625a.21487.21487,0,0,1,0-.29309l.38192-.41742a.22.22,0,0,1,.311-.00872l.00873.00872,1.74076,1.89174a.21555.21555,0,0,1-.01428.30449l-.00052.00046ZM11.53263,9.17162a.21486.21486,0,0,1,0-.29308l.3819-.41744a.2177.2177,0,0,1,.30774-.00923l.012.01223,1.98057,2.16412-.29605.26941-.26349.25164a.21365.21365,0,0,1-.30212-.00277l-.00578-.00612Zm3.79534,5.6753-1.86215-2.025a.21283.21283,0,0,1,.00744-.30087l.0044-.00407.56844-.51808a.21809.21809,0,0,1,.30492.01183l1.86216,2.025a.21279.21279,0,0,1-.00744.30084l-.00441.00408-.56841.51809A.21813.21813,0,0,1,15.328,14.84692Zm2.45129-.17171-1.93321,1.80294a.21923.21923,0,0,1-.30788-.01479l-.003-.003a.21554.21554,0,0,1,.0143-.3045l.00048-.00044.21317-.19538,1.52464-1.40327.19244-.19244a.21477.21477,0,0,1,.30373.00135l.00712.00754a.20831.20831,0,0,1,.05625.14506.21775.21775,0,0,1-.068.15689Z" transform="translate(-0.00004 0.00003)"/><path class="cls-2" d="M17.84735,14.51827a.21776.21776,0,0,1-.06809.1569l-1.93321,1.80294a.21923.21923,0,0,1-.30788-.01479l-.003-.003a.21554.21554,0,0,1,.0143-.3045l.00048-.00044.21317-.19538,1.52464-1.40327.19244-.19244a.21478.21478,0,0,1,.30373.00134l.00712.00755A.20834.20834,0,0,1,17.84735,14.51827Z" transform="translate(-0.00004 0.00003)"/><path class="cls-3" d="M16.20132,14.34063l-.56841.51809a.21813.21813,0,0,1-.30494-.01184l-1.86215-2.025a.21283.21283,0,0,1,.00744-.30087l.0044-.00407.56844-.51808a.2181.2181,0,0,1,.30492.01182l1.86216,2.025a.21279.21279,0,0,1-.00742.30083Z" transform="translate(-0.00004 0.00003)"/><path class="cls-4" d="M12.66649,12.0581,12.255,12.44a.21638.21638,0,0,1-.30587-.00967l-.002-.00217-1.70821-1.85624a.21487.21487,0,0,1,0-.29309l.38192-.41742a.22.22,0,0,1,.311-.00872l.00873.00872,1.74076,1.89174a.21555.21555,0,0,1-.01428.30449Z" transform="translate(-0.00004 0.00003)"/><path class="cls-5" d="M14.21484,10.62818l-.29605.26941-.26349.25164a.21365.21365,0,0,1-.30212-.00277l-.00578-.00612L11.53263,9.17162a.21486.21486,0,0,1,0-.29308l.3819-.41744a.2177.2177,0,0,1,.30774-.00923l.012.01223Z" transform="translate(-0.00004 0.00003)"/><path class="cls-6" d="M8.77345,4.99732,7.1126,6.80619a.22.22,0,0,1-.311.00872l-.00872-.00872L3.92416,3.70062a.21634.21634,0,0,1-.05625-.10954L3.486,1.35292a.21552.21552,0,0,1,.26941-.24571l2.19372.58025a.1796.1796,0,0,1,.10363.06218L8.7764,4.70716A.21419.21419,0,0,1,8.77345,4.99732Z" transform="translate(-0.00004 0.00003)"/><path class="cls-7" d="M15.52633,1.35292l-.39375,2.23813a.253.253,0,0,1-.05328.10954L7.05044,12.41927a.21554.21554,0,0,1-.30444.01525l-.0005-.00045L6.331,12.04921a.21552.21552,0,0,1-.01526-.30442l.00045-.0005,4.72791-5.13054a.44427.44427,0,0,0-.65427-.5921L5.66493,11.1433a.21642.21642,0,0,1-.30576.01384l-.00214-.002-.27532-.25462-.296-.27236,8.17391-8.87851a.17968.17968,0,0,1,.10363-.06218l2.19668-.58025a.21536.21536,0,0,1,.2664.24568Z" transform="translate(-0.00004 0.00003)"/><path class="cls-8" d="M5.53467,12.82192l-1.86512,2.025a.21808.21808,0,0,1-.30492.01184l-.56841-.51809a.21276.21276,0,0,1-.016-.30048l.00411-.00444,1.86513-2.025a.2181.2181,0,0,1,.30492-.01183l.56841.51808a.21279.21279,0,0,1,.01594.3005Z" transform="translate(-0.00004 0.00003)"/><path class="cls-9" d="M3.47713,16.45146l-.00593.00593a.21405.21405,0,0,1-.30185.02314l-.006-.00538-1.945-1.8a.21809.21809,0,0,1-.01184-.30492l.003-.003a.21631.21631,0,0,1,.30558-.014l.00232.00215.20131.19242L3.24334,15.9511l.21611.19836A.21484.21484,0,0,1,3.47713,16.45146Z" transform="translate(-0.00004 0.00003)"/></svg>