<svg id="Lager_1" data-name="Lager 1" xmlns="http://www.w3.org/2000/svg" viewBox="0 0 48 48"><defs><style>.cls-1{fill:#daa520;}</style></defs><title>1v1-swords2</title><path class="cls-1" d="M35.56,46.82a1,1,0,0,0,1.41,0L46.82,37a1,1,0,0,0,0-1.41,1,1,0,0,0-1.42,0l-9.84,9.85A1,1,0,0,0,35.56,46.82Z" transform="translate(-6 -6)"/><path class="cls-1" d="M6.29,6.29a1,1,0,0,0-.26,1l3.2,12.27a1.09,1.09,0,0,0,.31.5L35.41,42.73l7.32-7.33L20,9.54a1,1,0,0,0-.5-.3L7.26,6A1,1,0,0,0,6.29,6.29Z" transform="translate(-6 -6)"/><path class="cls-1" d="M46,40.64,40.65,46l6.9,6.91a3.78,3.78,0,0,0,5.35-5.33Z" transform="translate(-6 -6)"/><path class="cls-1" d="M14.6,35.56a1,1,0,0,0-1.42,0,1,1,0,0,0,0,1.41L23,46.82a1,1,0,0,0,1.41,0,1,1,0,0,0,0-1.41Z" transform="translate(-6 -6)"/><polygon class="cls-1" points="14.21 26.05 11.26 29.4 18.59 36.73 22.48 33.31 14.21 26.05"/><path class="cls-1" d="M52.74,6,40.48,9.24a1,1,0,0,0-.5.3l-8.64,9.85L40,29.23,50.46,20a1.09,1.09,0,0,0,.31-.5L54,7.25a1,1,0,0,0-.26-1A1,1,0,0,0,52.74,6Z" transform="translate(-6 -6)"/><path class="cls-1" d="M7.1,52.89a3.77,3.77,0,0,0,5.34,0L19.35,46,14,40.64,7.1,47.56A3.77,3.77,0,0,0,7.1,52.89Z" transform="translate(-6 -6)"/></svg>