<svg id="Lager_1" data-name="Lager 1" xmlns="http://www.w3.org/2000/svg" viewBox="0 0 64.21 59.78"><defs><style>.cls-1{fill:#ea3b3b;}</style></defs><title>1v1-swords-red</title><path class="cls-1" d="M63.93,48.25l-3-3.3a1.5,1.5,0,0,0-1-.49,1.44,1.44,0,0,0-1.08.4l-.73.67a.73.73,0,0,1-1-.05L50.8,38.65a.74.74,0,0,1,0-1l5.6-5.18a1.5,1.5,0,0,0-2-2.21l-3.58,3.3a.73.73,0,0,1-1-.05l-6.5-7.06a.73.73,0,0,1,0-1L53.66,14.15l.07-.11a1.11,1.11,0,0,0,.17-.3.85.85,0,0,0,.09-.22v-.13L56.08,1.76h0v-.6h0V1.07L56,.9,56,.78,55.87.66a.4.4,0,0,0-.1-.12l-.11-.1-.13-.1-.1-.07L55.28.19h-.11L55,.13h-.69l-11.42,3-.21.08h0a1.45,1.45,0,0,0-.45.33h0L32.7,13.7a.73.73,0,0,1-1.07,0L22.24,3.5h0a1.43,1.43,0,0,0-.44-.32h-.06l-.2-.08L10.12.1H9.39l-.2.06h-.1a.8.8,0,0,0-.16.08l-.1.07L8.66.44V.5l-.1.12a.75.75,0,0,0-.07.12L8.41.86,8.35,1v.09h0v.6h0l2,11.72v.13a.85.85,0,0,0,.09.22.92.92,0,0,0,.18.3.14.14,0,0,0,.06.11L21,25.44a.73.73,0,0,1,0,1l-6.5,7.06a.73.73,0,0,1-1,.05l-3.58-3.3a1.5,1.5,0,1,0-2.25,2,1.37,1.37,0,0,0,.25.23l5.22,4.8h0l1,.92L7.31,45.49a.74.74,0,0,1-1,0l-.73-.67a1.5,1.5,0,0,0-1.08-.42,1.5,1.5,0,0,0-1,.49l-3,3.3a1.5,1.5,0,0,0,.09,2.12h0l9.82,9.09a1.47,1.47,0,0,0,2.1-.09l3-3.3a1.48,1.48,0,0,0,.4-1.08,1.53,1.53,0,0,0-.48-1l-.73-.67a.72.72,0,0,1,0-1l6.29-6.83a.73.73,0,0,1,1,0l5.71,5.23a1.5,1.5,0,1,0,2.25-2,1.37,1.37,0,0,0-.25-.23l-3.58-3.3a.73.73,0,0,1,0-1l5.53-6a.74.74,0,0,1,1.08,0l5.53,6a.72.72,0,0,1,0,1L34.6,48.44a1.5,1.5,0,0,0,2,2.21l5.68-5.23a.73.73,0,0,1,1,0L49.6,52.3a.72.72,0,0,1,0,1l-.7.64a1.51,1.51,0,0,0-.08,2.12l3,3.3a1.5,1.5,0,0,0,1,.49h.06a1.49,1.49,0,0,0,1-.4l9.9-9.11a1.49,1.49,0,0,0,.2-2.11ZM48.09,36l-1,.91h0l-.89.85a.72.72,0,0,1-1,0L39,31.08a.73.73,0,0,1,0-1l1.29-1.41a.74.74,0,0,1,1.08,0ZM13.14,12.23,11.85,4.67a.73.73,0,0,1,.91-.83l7.41,2a.61.61,0,0,1,.35.21l9.2,10a.72.72,0,0,1,0,1L24.1,23.09a.74.74,0,0,1-1.08,0L13.33,12.6A.73.73,0,0,1,13.14,12.23ZM10.76,55.75,4.19,49.67a.74.74,0,0,1,0-1h0a.73.73,0,0,1,1,0l.68.65h0L11,54h0l.73.67a.73.73,0,0,1,.06,1l0,0A.72.72,0,0,1,10.76,55.75Zm.68-5.46L9.52,48.54a.72.72,0,0,1,0-1l6.3-6.84a.74.74,0,0,1,1,0l1.92,1.75a.72.72,0,0,1,0,1l-6.3,6.84A.74.74,0,0,1,11.44,50.29Zm10-9.49a.73.73,0,0,1-.05-1l16-17.33a1.5,1.5,0,0,0-2.21-2l-16,17.3a.73.73,0,0,1-1,0l-.93-.86h0l-1-.92L43.85,6a.61.61,0,0,1,.35-.21l7.42-2a.73.73,0,0,1,.9.83l-1.33,7.56a.85.85,0,0,1-.18.37L23.89,42.05a.73.73,0,0,1-1,.05Zm13.2-6L36,33.41a.74.74,0,0,1,1.08,0l5.88,6.39a.73.73,0,0,1,0,1l-1.39,1.29a.73.73,0,0,1-1,0l-5.77-6.27A.73.73,0,0,1,34.66,34.82ZM45.6,42.38l1.92-1.75a.74.74,0,0,1,1,0l6.29,6.84a.72.72,0,0,1,0,1l-1.92,1.75a.74.74,0,0,1-1,0l-6.29-6.84A.72.72,0,0,1,45.6,42.38Zm7,13.33h0a.73.73,0,0,1,.05-1l.72-.66h0l5.15-4.74h0l.65-.65a.73.73,0,0,1,1.05,0h0a.72.72,0,0,1,0,1L53.6,55.76A.74.74,0,0,1,52.56,55.71Z" transform="translate(-0.07 -0.1)"/></svg>