<svg id="Lager_1" data-name="Lager 1" xmlns="http://www.w3.org/2000/svg" xmlns:xlink="http://www.w3.org/1999/xlink" viewBox="0 0 19.00948 17.69783"><defs><style>.cls-1{fill:#e22b2b;}.cls-2,.cls-3,.cls-4,.cls-5,.cls-6,.cls-7,.cls-8,.cls-9{stroke-miterlimit:10;stroke-width:0.25px;}.cls-2{fill:url(#Ny_övertoningsruta_1);stroke:url(#Ny_övertoningsruta_1-2);}.cls-3{fill:url(#Ny_övertoningsruta_1-3);stroke:url(#Ny_övertoningsruta_1-4);}.cls-4{fill:url(#Ny_övertoningsruta_1-5);stroke:url(#Ny_övertoningsruta_1-6);}.cls-5{fill:url(#Ny_övertoningsruta_1-7);stroke:url(#Ny_övertoningsruta_1-8);}.cls-6{fill:url(#Ny_övertoningsruta_1-9);stroke:url(#Ny_övertoningsruta_1-10);}.cls-7{fill:url(#Ny_övertoningsruta_1-11);stroke:url(#Ny_övertoningsruta_1-12);}.cls-8{fill:url(#Ny_övertoningsruta_1-13);stroke:url(#Ny_övertoningsruta_1-14);}.cls-9{fill:url(#Ny_övertoningsruta_1-15);stroke:url(#Ny_övertoningsruta_1-16);}</style><linearGradient id="Ny_övertoningsruta_1" x1="38.13935" y1="36.50924" x2="40.50761" y2="36.50924" gradientUnits="userSpaceOnUse"><stop offset="0" stop-color="#ea0000"/><stop offset="1" stop-color="#b52f2f"/></linearGradient><linearGradient id="Ny_övertoningsruta_1-2" x1="38.01435" y1="36.50924" x2="40.63261" y2="36.50924" xlink:href="#Ny_övertoningsruta_1"/><linearGradient id="Ny_övertoningsruta_1-3" x1="36.06744" y1="34.51988" x2="38.93206" y2="34.51988" xlink:href="#Ny_övertoningsruta_1"/><linearGradient id="Ny_övertoningsruta_1-4" x1="35.94244" y1="34.51988" x2="39.05706" y2="34.51988" xlink:href="#Ny_övertoningsruta_1"/><linearGradient id="Ny_övertoningsruta_1-5" x1="32.84142" y1="32.23669" x2="35.39767" y2="32.23669" xlink:href="#Ny_övertoningsruta_1"/><linearGradient id="Ny_övertoningsruta_1-6" x1="32.71642" y1="32.23669" x2="35.52267" y2="32.23669" xlink:href="#Ny_övertoningsruta_1"/><linearGradient id="Ny_övertoningsruta_1-7" x1="34.13516" y1="30.8926" x2="36.8751" y2="30.8926" xlink:href="#Ny_övertoningsruta_1"/><linearGradient id="Ny_övertoningsruta_1-8" x1="34.01016" y1="30.8926" x2="37.05194" y2="30.8926" xlink:href="#Ny_övertoningsruta_1"/><linearGradient id="Ny_övertoningsruta_1-9" x1="26.14302" y1="25.07832" x2="31.4918" y2="25.07832" xlink:href="#Ny_övertoningsruta_1"/><linearGradient id="Ny_övertoningsruta_1-10" x1="26.01802" y1="25.07832" x2="31.6168" y2="25.07832" xlink:href="#Ny_övertoningsruta_1"/><linearGradient id="Ny_övertoningsruta_1-11" x1="27.44592" y1="27.88597" x2="38.18983" y2="27.88597" xlink:href="#Ny_övertoningsruta_1"/><linearGradient id="Ny_övertoningsruta_1-12" x1="27.26926" y1="27.88597" x2="38.31483" y2="27.88597" xlink:href="#Ny_övertoningsruta_1"/><linearGradient id="Ny_övertoningsruta_1-13" x1="25.38598" y1="34.51988" x2="28.25357" y2="34.51988" xlink:href="#Ny_övertoningsruta_1"/><linearGradient id="Ny_övertoningsruta_1-14" x1="25.26098" y1="34.51988" x2="28.37857" y2="34.51988" xlink:href="#Ny_övertoningsruta_1"/><linearGradient id="Ny_övertoningsruta_1-15" x1="23.81026" y1="36.50556" x2="26.19099" y2="36.50556" xlink:href="#Ny_övertoningsruta_1"/><linearGradient id="Ny_övertoningsruta_1-16" x1="23.68526" y1="36.50556" x2="26.31599" y2="36.50556" xlink:href="#Ny_övertoningsruta_1"/></defs><title>1v1-swords-fill</title><path class="cls-1" d="M41.56747,35.34883l-.003-.003-.88815-.977a.44338.44338,0,0,0-.29605-.14506.42748.42748,0,0,0-.31974.11841l-.21611.19837a.21552.21552,0,0,1-.30492-.01482l-1.86216-2.022a.21813.21813,0,0,1,.01185-.30494l1.65787-1.53354a.4441.4441,0,0,0-.5921-.65427l-1.05986.977a.21552.21552,0,0,1-.30492-.01482L35.4659,28.8831a.2173.2173,0,0,1,0-.29012l3.05818-3.34239a.20034.20034,0,0,1,.02072-.03258.32818.32818,0,0,0,.05034-.08881.25174.25174,0,0,0,.02664-.06512v-.03849l.61875-3.443v-.20428l-.01776-.05032-.02073-.03553a.24645.24645,0,0,0-.02369-.03552.11826.11826,0,0,0-.0296-.03554l-.03258-.0296-.03847-.0296-.02961-.02072-.0444-.02369h-.03258L38.91486,21.1h-.20427l-3.38088.88814-.06218.02369a.43037.43037,0,0,0-.1332.09769L32.3189,25.11737a.21667.21667,0,0,1-.31678-.003l-2.77991-3.01674a.42207.42207,0,0,0-.13026-.09474h-.01776l-.05921-.02369-3.38088-.88815H25.418l-.05921.01779h-.0296a.23509.23509,0,0,0-.04738.02367l-.0296.02072-.05034.03849v.01776a.31464.31464,0,0,0-.0296.03553.22239.22239,0,0,0-.02072.03552l-.02369.03553-.01776.05034v.20427l.5773,3.46969v.03849a.25029.25029,0,0,0,.02665.06512.27316.27316,0,0,0,.05328.08883.04192.04192,0,0,0,.01777.03256l3.0641,3.32759a.2173.2173,0,0,1,0,.29012l-1.92432,2.09011A.21552.21552,0,0,1,26.62,30.988l-1.05986-.977a.44366.44366,0,1,0-.66611.58619.40489.40489,0,0,0,.074.06808l1.54538,1.421.29605.27238-2.00722,2.17a.21809.21809,0,0,1-.30492.01186l-.21613-.19837a.41884.41884,0,0,0-.61579.02073l-.88814.977a.44443.44443,0,0,0,.02665.62762l2.9072,2.69109a.43387.43387,0,0,0,.6217-.02665l.88815-.977a.43921.43921,0,0,0,.11843-.31972.45336.45336,0,0,0-.1421-.29605l-.21613-.19836a.21277.21277,0,0,1-.01184-.30492l1.86215-2.022a.21554.21554,0,0,1,.30494-.01479L30.8268,36.0475a.44365.44365,0,1,0,.66611-.58617.40262.40262,0,0,0-.074-.06809l-1.05984-.977a.21552.21552,0,0,1-.0148-.30492l1.63714-1.77926a.22008.22008,0,0,1,.31974,0l1.63715,1.78223a.21193.21193,0,0,1-.01184.30195l-1.04506.98585a.44411.44411,0,0,0,.5921.65428L35.15505,34.508a.21553.21553,0,0,1,.30492.01481l1.86215,2.022a.21279.21279,0,0,1-.01184.30494l-.20724.18947a.4471.4471,0,0,0-.02367.62763l.88815.977a.44339.44339,0,0,0,.29605.14507h.01776a.44012.44012,0,0,0,.29605-.11843l2.93088-2.697A.44245.44245,0,0,0,41.56747,35.34883ZM26.58442,24.7917a.21635.21635,0,0,1-.05625-.10954L26.14626,22.444a.21552.21552,0,0,1,.26941-.24571l2.19372.58025a.17961.17961,0,0,1,.10363.06218l2.72364,2.95752a.21419.21419,0,0,1-.00295.29013l-1.66085,1.80887a.22.22,0,0,1-.31972,0Zm-.447,12.75084-.00593.00593a.21407.21407,0,0,1-.30789.01776l-1.945-1.8a.21809.21809,0,0,1-.01184-.30492l.003-.003a.2163.2163,0,0,1,.3079-.01183l.20131.19242,1.52466,1.40327.21611.19836A.21484.21484,0,0,1,26.13739,37.54254ZM28.19493,33.913l-1.86512,2.025a.21809.21809,0,0,1-.30492.01184l-.56841-.51809a.21277.21277,0,0,1-.01186-.30492l1.86513-2.025a.2181.2181,0,0,1,.30492-.01183l.56841.51808A.21278.21278,0,0,1,28.19493,33.913Zm1.51577-.40264a.21554.21554,0,0,1-.30494.0148l-.41446-.38486a.21553.21553,0,0,1-.01481-.30492l4.72791-5.13054a.44427.44427,0,0,0-.65427-.5921l-4.72494,5.12165a.21643.21643,0,0,1-.3079.01186l-.27532-.25462-.296-.27236,8.17391-8.87851a.17964.17964,0,0,1,.10363-.06218l2.19668-.58025a.21535.21535,0,0,1,.26645.24571l-.39375,2.23813a.253.253,0,0,1-.05328.10954Zm5.616-.36117-.41152.3819a.21639.21639,0,0,1-.30788-.01184L32.89914,31.663a.21488.21488,0,0,1,0-.29309l.38192-.41742a.22.22,0,0,1,.31973,0l1.74076,1.89174A.21554.21554,0,0,1,35.32675,33.14918ZM34.19289,30.2627a.21485.21485,0,0,1,0-.29308l.3819-.41744a.2177.2177,0,0,1,.31974.003l1.98057,2.16412-.29605.26941-.26349.25164a.21364.21364,0,0,1-.3079-.00889ZM37.98823,35.938l-1.86215-2.025a.21281.21281,0,0,1,.01184-.30494l.56843-.51808a.2181.2181,0,0,1,.30492.01183l1.86216,2.025a.21279.21279,0,0,1-.01185.30492l-.56841.51809A.21812.21812,0,0,1,37.98823,35.938Zm2.45129-.17171-1.93321,1.80294a.21923.21923,0,0,1-.30788-.01479l-.003-.003a.21555.21555,0,0,1,.01479-.30494l.21317-.19538,1.52464-1.40327.19244-.19244a.21477.21477,0,0,1,.31085.00889.20834.20834,0,0,1,.05625.14506A.21774.21774,0,0,1,40.43952,35.76625Z" transform="translate(-22.66026 -21.09108)"/><path class="cls-2" d="M40.50761,35.60935a.21774.21774,0,0,1-.06809.1569l-1.93321,1.80294a.21923.21923,0,0,1-.30788-.01479l-.003-.003a.21555.21555,0,0,1,.01479-.30494l.21317-.19538,1.52464-1.40327.19244-.19244a.21477.21477,0,0,1,.31085.00889A.20834.20834,0,0,1,40.50761,35.60935Z" transform="translate(-22.66026 -21.09108)"/><path class="cls-3" d="M38.86158,35.43171l-.56841.51809a.21812.21812,0,0,1-.30494-.01184l-1.86215-2.025a.21281.21281,0,0,1,.01184-.30494l.56843-.51808a.2181.2181,0,0,1,.30492.01183l1.86216,2.025A.21279.21279,0,0,1,38.86158,35.43171Z" transform="translate(-22.66026 -21.09108)"/><path class="cls-4" d="M35.32675,33.14918l-.41152.3819a.21639.21639,0,0,1-.30788-.01184L32.89914,31.663a.21488.21488,0,0,1,0-.29309l.38192-.41742a.22.22,0,0,1,.31973,0l1.74076,1.89174A.21554.21554,0,0,1,35.32675,33.14918Z" transform="translate(-22.66026 -21.09108)"/><path class="cls-5" d="M36.8751,31.71926l-.29605.26941-.26349.25164a.21364.21364,0,0,1-.3079-.00889L34.19289,30.2627a.21485.21485,0,0,1,0-.29308l.3819-.41744a.2177.2177,0,0,1,.31974.003Z" transform="translate(-22.66026 -21.09108)"/><path class="cls-6" d="M31.43371,26.0884l-1.66085,1.80887a.22.22,0,0,1-.31972,0L26.58442,24.7917a.21635.21635,0,0,1-.05625-.10954L26.14626,22.444a.21552.21552,0,0,1,.26941-.24571l2.19372.58025a.17961.17961,0,0,1,.10363.06218l2.72364,2.95752A.21419.21419,0,0,1,31.43371,26.0884Z" transform="translate(-22.66026 -21.09108)"/><path class="cls-7" d="M38.18659,22.444l-.39375,2.23813a.253.253,0,0,1-.05328.10954L29.7107,33.51035a.21554.21554,0,0,1-.30494.0148l-.41446-.38486a.21553.21553,0,0,1-.01481-.30492l4.72791-5.13054a.44427.44427,0,0,0-.65427-.5921l-4.72494,5.12165a.21643.21643,0,0,1-.3079.01186l-.27532-.25462-.296-.27236,8.17391-8.87851a.17964.17964,0,0,1,.10363-.06218l2.19668-.58025A.21535.21535,0,0,1,38.18659,22.444Z" transform="translate(-22.66026 -21.09108)"/><path class="cls-8" d="M28.19493,33.913l-1.86512,2.025a.21809.21809,0,0,1-.30492.01184l-.56841-.51809a.21277.21277,0,0,1-.01186-.30492l1.86513-2.025a.2181.2181,0,0,1,.30492-.01183l.56841.51808A.21278.21278,0,0,1,28.19493,33.913Z" transform="translate(-22.66026 -21.09108)"/><path class="cls-9" d="M26.13739,37.54254l-.00593.00593a.21407.21407,0,0,1-.30789.01776l-1.945-1.8a.21809.21809,0,0,1-.01184-.30492l.003-.003a.2163.2163,0,0,1,.3079-.01183l.20131.19242,1.52466,1.40327.21611.19836A.21484.21484,0,0,1,26.13739,37.54254Z" transform="translate(-22.66026 -21.09108)"/></svg>