<svg id="Lager_1" data-name="Lager 1" xmlns="http://www.w3.org/2000/svg" xmlns:xlink="http://www.w3.org/1999/xlink" viewBox="0 0 80.10377 74.57698"><defs><style>.cls-1{fill:#3ecc33;}.cls-2,.cls-3,.cls-4,.cls-5,.cls-6,.cls-7,.cls-8,.cls-9{stroke-miterlimit:10;stroke-width:0.25px;}.cls-2{fill:url(#Namnlös_övertoning_32);stroke:url(#Namnlös_övertoning_32-2);}.cls-3{fill:url(#Namnlös_övertoning_32-3);stroke:url(#Namnlös_övertoning_32-4);}.cls-4{fill:url(#Namnlös_övertoning_32-5);stroke:url(#Namnlös_övertoning_32-6);}.cls-5{fill:url(#Namnlös_övertoning_32-7);stroke:url(#Namnlös_övertoning_32-8);}.cls-6{fill:url(#Namnlös_övertoning_32-9);stroke:url(#Namnlös_övertoning_32-10);}.cls-7{fill:url(#Namnlös_övertoning_32-11);stroke:url(#Namnlös_övertoning_32-12);}.cls-8{fill:url(#Namnlös_övertoning_32-13);stroke:url(#Namnlös_övertoning_32-14);}.cls-9{fill:url(#Namnlös_övertoning_32-15);stroke:url(#Namnlös_övertoning_32-16);}</style><linearGradient id="Namnlös_övertoning_32" x1="34.67975" y1="36.531" x2="44.65978" y2="36.531" gradientUnits="userSpaceOnUse"><stop offset="0" stop-color="#2d8925"/><stop offset="1" stop-color="#2fbc24"/></linearGradient><linearGradient id="Namnlös_övertoning_32-2" x1="57.21505" y1="293.62205" x2="67.44508" y2="293.62205" gradientTransform="translate(-22.6603 -257.09105)" xlink:href="#Namnlös_övertoning_32"/><linearGradient id="Namnlös_övertoning_32-3" x1="25.94921" y1="28.14807" x2="38.02065" y2="28.14807" xlink:href="#Namnlös_övertoning_32"/><linearGradient id="Namnlös_övertoning_32-4" x1="48.48451" y1="285.23912" x2="60.80595" y2="285.23912" gradientTransform="translate(-22.6603 -257.09105)" xlink:href="#Namnlös_övertoning_32"/><linearGradient id="Namnlös_övertoning_32-5" x1="12.35525" y1="18.5269" x2="23.12723" y2="18.5269" xlink:href="#Namnlös_övertoning_32"/><linearGradient id="Namnlös_övertoning_32-6" x1="34.89055" y1="275.61795" x2="45.91253" y2="275.61795" gradientTransform="translate(-22.6603 -257.09105)" xlink:href="#Namnlös_övertoning_32"/><linearGradient id="Namnlös_övertoning_32-7" x1="17.80683" y1="12.86319" x2="29.35266" y2="12.86319" xlink:href="#Namnlös_övertoning_32"/><linearGradient id="Namnlös_övertoning_32-8" x1="40.34212" y1="269.95424" x2="52.1898" y2="269.95424" gradientTransform="translate(-22.6603 -257.09105)" xlink:href="#Namnlös_övertoning_32"/><linearGradient id="Namnlös_övertoning_32-9" x1="-15.87199" y1="-11.63764" x2="6.66801" y2="-11.63764" xlink:href="#Namnlös_övertoning_32"/><linearGradient id="Namnlös_övertoning_32-10" x1="6.66331" y1="245.45341" x2="29.45331" y2="245.45341" gradientTransform="translate(-22.6603 -257.09105)" xlink:href="#Namnlös_övertoning_32"/><linearGradient id="Namnlös_övertoning_32-11" x1="-10.3808" y1="0.19484" x2="34.89285" y2="0.19484" xlink:href="#Namnlös_övertoning_32"/><linearGradient id="Namnlös_övertoning_32-12" x1="12.10285" y1="257.28589" x2="57.67815" y2="257.28589" gradientTransform="translate(-22.6603 -257.09105)" xlink:href="#Namnlös_övertoning_32"/><linearGradient id="Namnlös_övertoning_32-13" x1="-19.06157" y1="28.14831" x2="-6.97772" y2="28.14831" xlink:href="#Namnlös_övertoning_32"/><linearGradient id="Namnlös_övertoning_32-14" x1="3.47373" y1="285.23936" x2="15.80758" y2="285.23936" gradientTransform="translate(-22.6603 -257.09105)" xlink:href="#Namnlös_övertoning_32"/><linearGradient id="Namnlös_övertoning_32-15" x1="-25.70111" y1="36.51533" x2="-15.66877" y2="36.51533" xlink:href="#Namnlös_övertoning_32"/><linearGradient id="Namnlös_övertoning_32-16" x1="-3.16581" y1="293.60638" x2="7.11653" y2="293.60638" gradientTransform="translate(-22.6603 -257.09105)" xlink:href="#Namnlös_övertoning_32"/></defs><title>1v1-swords-fill3</title><path class="cls-1" d="M49.12586,31.64125l-.01264-.01264-3.74258-4.117a1.8682,1.8682,0,0,0-1.24752-.61126,1.80139,1.80139,0,0,0-1.34736.499l-.91066.83592a.90814.90814,0,0,1-1.28289-.06027l0,0-.002-.00215-7.847-8.52052a.91922.91922,0,0,1,.04994-1.285l6.9861-6.46219a1.8714,1.8714,0,0,0-2.49506-2.757l-4.46615,4.117a.90813.90813,0,0,1-1.28289-.06026l0,0-.002-.00215-8.10873-8.8074a.91568.91568,0,0,1,0-1.22254L36.30131-10.91186a.84679.84679,0,0,1,.08731-.13729,1.38185,1.38185,0,0,0,.21212-.37424,1.05832,1.05832,0,0,0,.11226-.27441v-.16211l2.6074-14.50847v-.86082l-.07484-.212-.08735-.14972a1.04327,1.04327,0,0,0-.09983-.14968.49782.49782,0,0,0-.12473-.14976l-.13728-.12473-.16211-.12474-.12478-.08731-.1871-.09983H38.1851l-.23708-.075h-.86077L22.84053-24.65943l-.262.09982a1.814,1.814,0,0,0-.56129.41166l-11.864,12.6748a.913.913,0,0,1-1.2908.03227l-.04408-.04492L-2.89569-24.198a1.77891,1.77891,0,0,0-.54911-.39923h-.07484l-.2495-.09983-14.24671-3.74245h-.91063l-.2495.07484h-.12473a.99059.99059,0,0,0-.19966.09974l-.12452.08732-.21234.16219v.07484a1.32276,1.32276,0,0,0-.12477.14972.93573.93573,0,0,0-.08731.14968l-.09979.1498-.07484.212v.86078l2.43269,14.62094v.1622a1.05286,1.05286,0,0,0,.1123.27441,1.151,1.151,0,0,0,.22452.37432.17664.17664,0,0,0,.07488.1372L-4.46772,3.17261a.91568.91568,0,0,1,0,1.22254l-8.10891,8.80753a.90817.90817,0,0,1-1.28275.06426h0l-.002-.00181-4.46615-4.117a1.86956,1.86956,0,0,0-2.63906-.16054,1.86954,1.86954,0,0,0-.17954,2.61725l.01167.01327a1.706,1.706,0,0,0,.31183.28689l6.51209,5.98795,1.24752,1.14779-8.45823,9.14417a.919.919,0,0,1-1.28491.05l-.91075-.836a1.765,1.765,0,0,0-2.49594-.01846l-.09894.10582-3.74254,4.117a1.87288,1.87288,0,0,0,.1123,2.64478l12.25067,11.34a1.82829,1.82829,0,0,0,2.58454-.07352l0,0,.03523-.03838,3.74258-4.117a1.85072,1.85072,0,0,0,.49905-1.34726,1.91029,1.91029,0,0,0-.5988-1.24732l-.91075-.83587a.89659.89659,0,0,1-.06743-1.26618h0l.01732-.01872,7.84692-8.52051A.90827.90827,0,0,1-3.25977,28.059h0l.0021.00189,7.12315,6.52486A1.8695,1.8695,0,1,0,6.67831,32.1224l-.0059-.0067a1.69876,1.69876,0,0,0-.31183-.28692l-4.46607-4.117a.90815.90815,0,0,1-.06436-1.28269l.00006-.00006.00194-.00215,6.899-7.49793a.92743.92743,0,0,1,1.311-.03633l.03633.03633L16.97709,26.439a.893.893,0,0,1-.039,1.2623l-.00006.00006-.01083.01-4.40378,4.15428a1.87143,1.87143,0,0,0,2.49505,2.75707l7.08589-6.52469a.90823.90823,0,0,1,1.283.0603h0l.0019.0021L31.23619,36.681a.89668.89668,0,0,1-.03122,1.26771h0l-.01867.01728-.87329.79841a1.884,1.884,0,0,0-.09974,2.64473l3.74253,4.117a1.8684,1.8684,0,0,0,1.24757.61131h.07484a1.85441,1.85441,0,0,0,1.24753-.499L48.87619,34.27346a1.86449,1.86449,0,0,0,.25612-2.62425ZM-14.01129-12.8455a.91158.91158,0,0,1-.237-.46159l-1.60933-9.43139a.90819.90819,0,0,1,.73415-1.05386.90829.90829,0,0,1,.40112.01846l9.24413,2.44512a.75684.75684,0,0,1,.43669.262L6.43559-8.604a.90258.90258,0,0,1-.01265,1.22258L-.57551.241A.92705.92705,0,0,1-1.886.27766L-1.92274.241Zm-1.88362,53.73084-.025.025a.90206.90206,0,0,1-1.272.09752h0l-.02528-.02267-8.196-7.585a.919.919,0,0,1-.04989-1.2849l.01264-.01264a.91147.91147,0,0,1,1.28764-.059l.00982.00906.8483.81084,6.42465,5.91338.91067.83587a.90532.90532,0,0,1,.07437,1.2726ZM-7.22476,25.5908-15.0842,34.124a.919.919,0,0,1-1.2849.04989l-2.39523-2.18318a.89656.89656,0,0,1-.06749-1.26612l.00007-.00007.01732-.01871,7.85948-8.53316A.919.919,0,0,1-9.67,22.12276l2.39522,2.18313a.89668.89668,0,0,1,.06717,1.26628Zm6.38731-1.69668a.90826.90826,0,0,1-1.28287.06427h0l-.00211-.0019L-3.8691,22.33472a.90826.90826,0,0,1-.0643-1.28284l.00189-.00207L15.99146-.5698a1.87211,1.87211,0,0,0-.441-2.61058,1.87211,1.87211,0,0,0-2.316.11553L-6.67585,18.5173a.912.912,0,0,1-1.28845.05828l-.009-.00843-1.16017-1.07294-1.24731-1.1477L24.06328-21.0667a.75676.75676,0,0,1,.43669-.262l9.2566-2.44512a.90742.90742,0,0,1,1.10714.6489.90722.90722,0,0,1,.01565.3865l-1.65922,9.43127a1.06607,1.06607,0,0,1-.22452.46159Zm23.6653-1.52194-1.73411,1.60929a.91188.91188,0,0,1-1.2889-.04075l-.00843-.00914-7.198-7.82206a.90546.90546,0,0,1,0-1.23506l1.60938-1.759a.92705.92705,0,0,1,1.31052-.03674l.03679.03674,7.33539,7.97162a.9083.9083,0,0,1-.06017,1.28309l-.00219.00194Zm-4.77777-12.1634a.9054.9054,0,0,1,0-1.235l1.60929-1.75905a.91736.91736,0,0,1,1.29677-.03891h0l.05057.05154,8.34593,9.1194L28.10513,17.482l-1.11032,1.06039a.90029.90029,0,0,1-1.2731-.01167l-.02436-.02579ZM34.04329,34.124,26.19636,25.5908a.89684.89684,0,0,1,.03135-1.26783l.01854-.01716,2.39536-2.18313a.919.919,0,0,1,1.2849.04985l7.847,8.53315a.89668.89668,0,0,1-.03135,1.26771h0l-.01859.01719-2.39522,2.18318a.91918.91918,0,0,1-1.28491-.04981Zm10.3295-.72357-8.14636,7.59742a.92382.92382,0,0,1-1.29738-.06232l-.01264-.01265a.90826.90826,0,0,1,.06018-1.28307l.00008-.00006.002-.00186.89828-.82331,6.42468-5.91325.81093-.81092a.905.905,0,0,1,1.27988.00568h0l.03.03177a.87775.87775,0,0,1,.237.61127.91753.91753,0,0,1-.28655.66111Z" transform="translate(30.54717 28.43956)"/><path class="cls-2" d="M44.65971,32.73906a.91759.91759,0,0,1-.28692.66116l-8.14637,7.59742a.92382.92382,0,0,1-1.29738-.06232l-.01264-.01265a.90827.90827,0,0,1,.06019-1.28307l.00007-.00006.002-.00186.89828-.82331,6.42469-5.91325.81092-.81092a.90506.90506,0,0,1,1.27989.00564l.03.03182A.87794.87794,0,0,1,44.65971,32.73906Z" transform="translate(30.54717 28.43956)"/><path class="cls-3" d="M37.7235,31.9905l-2.39522,2.18318a.91917.91917,0,0,1-1.285-.04989l-7.84693-8.53315a.89685.89685,0,0,1,.03135-1.26784l.01854-.01715,2.39536-2.18314a.919.919,0,0,1,1.2849.0498l7.847,8.53317a.89666.89666,0,0,1-.03127,1.26766Z" transform="translate(30.54717 28.43956)"/><path class="cls-4" d="M22.82806,22.37214l-1.734,1.60929a.9118.9118,0,0,1-1.28884-.04069l-.00007-.00006-.00842-.00915-7.19824-7.822a.90545.90545,0,0,1,0-1.23505l1.60937-1.759a.92707.92707,0,0,1,1.31053-.03675l.03679.03675,7.33539,7.97161a.90831.90831,0,0,1-.06017,1.28309Z" transform="translate(30.54717 28.43956)"/><path class="cls-5" d="M29.35266,16.34659l-1.24753,1.13527-1.11032,1.06038a.90029.90029,0,0,1-1.2731-.01167l-.02436-.02579-7.64727-8.296a.9054.9054,0,0,1,0-1.235l1.60929-1.75905a.91736.91736,0,0,1,1.29677-.03891h0l.05057.05154Z" transform="translate(30.54717 28.43956)"/><path class="cls-6" d="M6.42316-7.38132-.57551.24108A.92706.92706,0,0,1-1.886.27783L-1.92278.24108-14.01129-12.8455a.91158.91158,0,0,1-.237-.46159l-1.60933-9.43139a.90819.90819,0,0,1,.73415-1.05386.90829.90829,0,0,1,.40112.01846l9.24413,2.44512a.75684.75684,0,0,1,.43669.262L6.43559-8.604A.90259.90259,0,0,1,6.42316-7.38132Z" transform="translate(30.54717 28.43956)"/><path class="cls-7" d="M34.87916-22.73848l-1.65923,9.43127a1.06607,1.06607,0,0,1-.22452.46159L-.83745,23.89407a.90826.90826,0,0,1-1.28287.06427h0l-.00211-.00189L-3.8691,22.33467a.90817.90817,0,0,1-.06435-1.28274l.00005-.00006.00189-.0021L15.99146-.56984a1.87211,1.87211,0,0,0-.441-2.61058,1.87212,1.87212,0,0,0-2.316.11552L-6.67585,18.51726a.912.912,0,0,1-1.28841.05835l0,0-.009-.00843-1.16017-1.07294-1.24731-1.1477L24.06328-21.0667a.75717.75717,0,0,1,.43669-.262l9.2566-2.44512a.9075.9075,0,0,1,1.107.64942.90757.90757,0,0,1,.01562.38585Z" transform="translate(30.54717 28.43956)"/><path class="cls-8" d="M-7.22476,25.5908-15.0842,34.124a.919.919,0,0,1-1.2849.04989l-2.39523-2.18318a.89656.89656,0,0,1-.06749-1.26612l.00007-.00007.01732-.01871,7.85948-8.53316A.919.919,0,0,1-9.67,22.12276l2.39522,2.18313a.89668.89668,0,0,1,.06717,1.26628Z" transform="translate(30.54717 28.43956)"/><path class="cls-9" d="M-15.895,40.88534l-.025.025a.902.902,0,0,1-1.27187.0976l-.0001-.00009-.02529-.02267-8.196-7.585a.919.919,0,0,1-.0499-1.2849l.01265-.01264a.9115.9115,0,0,1,1.28768-.059l.00978.00906.8483.81084,6.4246,5.91338.91067.83587A.90531.90531,0,0,1-15.895,40.88534Z" transform="translate(30.54717 28.43956)"/></svg>