<svg id="Lager_1" data-name="Lager 1" xmlns="http://www.w3.org/2000/svg" viewBox="0 0 64.33 59.88"><defs><style>.cls-1{fill:#cecece;}</style></defs><title>1v1-swords</title><path class="cls-1" d="M64.27,50.81l-3-3.3a1.5,1.5,0,0,0-1-.49,1.45,1.45,0,0,0-1.08.4l-1.27,1.16-7.27-7.91L56.78,35a1.5,1.5,0,0,0-2-2.21l-4.12,3.79-7.44-8.09L54,16.71a1.05,1.05,0,0,1,.07-.11,1.28,1.28,0,0,0,.17-.3.85.85,0,0,0,.09-.22s0-.08,0-.13L56.42,4.32v0a.86.86,0,0,0,0-.16.71.71,0,0,0,0-.14.5.5,0,0,0,0-.12,1.1,1.1,0,0,0,0-.18v0l0-.09-.06-.17-.07-.12a1.25,1.25,0,0,0-.08-.12.4.4,0,0,0-.1-.12L56,3l-.13-.1-.1-.07-.15-.08-.11,0a1.39,1.39,0,0,0-.19-.06l-.07,0h-.32l-.16,0-.14,0h0l-11.42,3-.21.08h0a1.5,1.5,0,0,0-.45.33h0l0,0h0L32.5,16.83,22.58,6.06l0,0a1.43,1.43,0,0,0-.44-.32l-.06,0-.2-.08-11.42-3h0l-.13,0-.17,0H9.8l-.07,0-.2.06-.1,0a.8.8,0,0,0-.16.08l-.1.07L9,3,9,3.06a1.27,1.27,0,0,0-.1.12.75.75,0,0,0-.07.12l-.08.12-.06.17,0,.09v0a1.22,1.22,0,0,0,0,.17.69.69,0,0,0,0,.13s0,.09,0,.13a1,1,0,0,0,0,.17v0L10.64,16c0,.05,0,.08,0,.13a1.45,1.45,0,0,0,.09.22,1.14,1.14,0,0,0,.18.3s0,.07.06.11l10.8,11.73-7.44,8.09-4.12-3.79a1.5,1.5,0,1,0-2,2.21l5.22,4.8h0l1,.92L7.16,48.58,5.89,47.42A1.48,1.48,0,0,0,4.81,47a1.5,1.5,0,0,0-1,.49l-3,3.3a1.5,1.5,0,0,0,.09,2.12L10.72,62a1.5,1.5,0,0,0,1,.4,1.46,1.46,0,0,0,1.1-.49l3-3.3a1.48,1.48,0,0,0,.4-1.08,1.54,1.54,0,0,0-.48-1l-1.27-1.16,7.28-7.91L28,53.18a1.5,1.5,0,1,0,2-2.21l-4.12-3.79,6.56-7.13,6.56,7.13L34.94,51a1.5,1.5,0,0,0,2,2.21l6.22-5.72,7.28,7.91L49.2,56.53a1.51,1.51,0,0,0-.08,2.12l3,3.3a1.49,1.49,0,0,0,1,.49h.06a1.49,1.49,0,0,0,1-.4l9.9-9.11A1.5,1.5,0,0,0,64.27,50.81ZM48.43,38.56l-1,.91h0L46,40.84l-7.09-7.7,2.29-2.48ZM13.52,15,12,6.11l8.72,2.3,9.79,10.64-6.61,7.18ZM11.65,58.82,4,51.74l1-1.1L6.22,51.8h0l5.15,4.74h0l1.26,1.15Zm.67-5.48-3-2.73,7.29-7.91,3,2.73Zm8.94-10.47L37.72,25a1.5,1.5,0,0,0-2.21-2L19.05,40.84l-1.47-1.36h0l-1-.92L44.33,8.41l8.73-2.3L51.49,15,23.74,45.15Zm13.28-5,2.29-2.48,6.91,7.51-2.47,2.28ZM45.4,45.43l3-2.73,7.28,7.91-3,2.73Zm8,13.39-1-1.1,1.26-1.15h0l5.15-4.74h0L60,50.64l1,1.1Z" transform="translate(-0.34 -2.56)"/></svg>