<svg xmlns="http://www.w3.org/2000/svg" xmlns:xlink="http://www.w3.org/1999/xlink" viewBox="0 0 80.10379 74.57695"><defs><style>.cls-1{fill:#47c42d;}.cls-2,.cls-3,.cls-4,.cls-5,.cls-6,.cls-7,.cls-8,.cls-9{stroke-miterlimit:10;stroke-width:0.25px;}.cls-2{fill:url(#Ny_övertoningsruta_1);stroke:url(#Ny_övertoningsruta_1-2);}.cls-3{fill:url(#Ny_övertoningsruta_1-3);stroke:url(#Ny_övertoningsruta_1-4);}.cls-4{fill:url(#Ny_övertoningsruta_1-5);stroke:url(#Ny_övertoningsruta_1-6);}.cls-5{fill:url(#Ny_övertoningsruta_1-7);stroke:url(#Ny_övertoningsruta_1-8);}.cls-6{fill:url(#Ny_övertoningsruta_1-9);stroke:url(#Ny_övertoningsruta_1-10);}.cls-7{fill:url(#Ny_övertoningsruta_1-11);stroke:url(#Ny_övertoningsruta_1-12);}.cls-8{fill:url(#Ny_övertoningsruta_1-13);stroke:url(#Ny_övertoningsruta_1-14);}.cls-9{fill:url(#Ny_övertoningsruta_1-15);stroke:url(#Ny_övertoningsruta_1-16);}</style><linearGradient id="Ny_övertoningsruta_1" x1="65.22693" y1="64.97055" x2="75.20695" y2="64.97055" gradientUnits="userSpaceOnUse"><stop offset="0" stop-color="#3b892e"/><stop offset="1" stop-color="#35c91b"/></linearGradient><linearGradient id="Ny_övertoningsruta_1-2" x1="65.10193" y1="64.97055" x2="75.33195" y2="64.97055" xlink:href="#Ny_övertoningsruta_1"/><linearGradient id="Ny_övertoningsruta_1-3" x1="56.49637" y1="56.58763" x2="68.56784" y2="56.58763" xlink:href="#Ny_övertoningsruta_1"/><linearGradient id="Ny_övertoningsruta_1-4" x1="56.37137" y1="56.58763" x2="68.69284" y2="56.58763" xlink:href="#Ny_övertoningsruta_1"/><linearGradient id="Ny_övertoningsruta_1-5" x1="42.90241" y1="46.96646" x2="53.67438" y2="46.96646" xlink:href="#Ny_övertoningsruta_1"/><linearGradient id="Ny_övertoningsruta_1-6" x1="42.77741" y1="46.96646" x2="53.79938" y2="46.96646" xlink:href="#Ny_övertoningsruta_1"/><linearGradient id="Ny_övertoningsruta_1-7" x1="48.354" y1="41.30275" x2="59.89983" y2="41.30275" xlink:href="#Ny_övertoningsruta_1"/><linearGradient id="Ny_övertoningsruta_1-8" x1="48.229" y1="41.30275" x2="60.07667" y2="41.30275" xlink:href="#Ny_övertoningsruta_1"/><linearGradient id="Ny_övertoningsruta_1-9" x1="14.67522" y1="16.80191" x2="37.21517" y2="16.80191" xlink:href="#Ny_övertoningsruta_1"/><linearGradient id="Ny_övertoningsruta_1-10" x1="14.55022" y1="16.80191" x2="37.34017" y2="16.80191" xlink:href="#Ny_övertoningsruta_1"/><linearGradient id="Ny_övertoningsruta_1-11" x1="20.16643" y1="28.6344" x2="65.44005" y2="28.6344" xlink:href="#Ny_övertoningsruta_1"/><linearGradient id="Ny_övertoningsruta_1-12" x1="19.98978" y1="28.6344" x2="65.56505" y2="28.6344" xlink:href="#Ny_övertoningsruta_1"/><linearGradient id="Ny_övertoningsruta_1-13" x1="11.4856" y1="56.58787" x2="23.56949" y2="56.58787" xlink:href="#Ny_övertoningsruta_1"/><linearGradient id="Ny_övertoningsruta_1-14" x1="11.3606" y1="56.58787" x2="23.69449" y2="56.58787" xlink:href="#Ny_övertoningsruta_1"/><linearGradient id="Ny_övertoningsruta_1-15" x1="4.84612" y1="64.95492" x2="14.87842" y2="64.95492" xlink:href="#Ny_övertoningsruta_1"/><linearGradient id="Ny_övertoningsruta_1-16" x1="4.72112" y1="64.95492" x2="15.00342" y2="64.95492" xlink:href="#Ny_övertoningsruta_1"/></defs><title>1v1-swords-fill3</title><g id="Lager_1" data-name="Lager 1"><path class="cls-1" d="M79.673,60.08081l-.01264-.01264-3.74258-4.117a1.86822,1.86822,0,0,0-1.24752-.61126,1.80138,1.80138,0,0,0-1.34736.499l-.91066.83592a.90813.90813,0,0,1-1.28289-.06027h0l-.002-.00215-7.847-8.52052a.91922.91922,0,0,1,.04994-1.285l6.9861-6.46219a1.8714,1.8714,0,0,0-2.49506-2.757l-4.46615,4.117a.90814.90814,0,0,1-1.28288-.06024v0h0l-.002-.00215-8.10873-8.8074a.91566.91566,0,0,1,0-1.22254L66.84848,17.5277a.84679.84679,0,0,1,.08731-.13729,1.38174,1.38174,0,0,0,.21212-.37424,1.05811,1.05811,0,0,0,.11226-.27441v-.16211l2.6074-14.50847V1.21036l-.07484-.212L69.70538.84864A1.04188,1.04188,0,0,0,69.60555.699.4977.4977,0,0,0,69.48082.5492L69.34354.42447,69.18143.29973,69.05665.21242l-.1871-.09983h-.13728l-.23708-.075h-.86077L53.3877,3.78013l-.262.09982a1.814,1.814,0,0,0-.56129.41166l-11.864,12.6748a.913.913,0,0,1-1.29077.03229l0,0-.04408-.04492-11.714-12.7122a1.77891,1.77891,0,0,0-.54911-.39923h-.07484L26.778,3.7425,12.53132.00005h-.91063l-.2495.07484h-.12473a.99086.99086,0,0,0-.19966.09974L10.92228.262l-.21234.16219V.499a1.32382,1.32382,0,0,0-.12477.14972.936.936,0,0,0-.08731.14968l-.09979.1498-.07484.212V2.021L12.75592,16.6419v.1622a1.05286,1.05286,0,0,0,.1123.27441,1.151,1.151,0,0,0,.22452.37432.17667.17667,0,0,0,.07488.1372L26.07945,31.61217a.91568.91568,0,0,1,0,1.22254l-8.10891,8.80753a.90817.90817,0,0,1-1.28274.06427h0l-.002-.00181-4.46615-4.117A1.86954,1.86954,0,0,0,9.401,40.0444l.01167.01327a1.706,1.706,0,0,0,.31183.28689l6.51209,5.98795,1.24752,1.14779L9.02592,56.62447a.919.919,0,0,1-1.28491.05l-.91075-.836A1.765,1.765,0,0,0,4.33432,55.82l-.09894.10582-3.74254,4.117a1.87288,1.87288,0,0,0,.1123,2.64478l12.25067,11.34a1.82829,1.82829,0,0,0,2.58454-.07352h0l.03523-.03838,3.74258-4.117a1.85072,1.85072,0,0,0,.49905-1.34726,1.91031,1.91031,0,0,0-.5988-1.24732l-.91075-.83587a.89658.89658,0,0,1-.06744-1.26617h0l.01732-.01872,7.84692-8.52051a.90827.90827,0,0,1,1.28287-.06434l.00006,0h0l.0021.00189,7.12315,6.52486A1.8695,1.8695,0,0,0,37.227,60.56366l-.00149-.0017-.0059-.0067a1.69876,1.69876,0,0,0-.31183-.28692l-4.46607-4.117a.90815.90815,0,0,1-.06436-1.28269l.00006-.00006.00194-.00215,6.899-7.49793a.92743.92743,0,0,1,1.311-.03633l.03633.03633,6.89861,7.51005a.893.893,0,0,1-.039,1.26229h0l-.00006.00006-.01083.01L43.07059,60.3052a1.87143,1.87143,0,0,0,2.495,2.75707l7.08589-6.52469a.90822.90822,0,0,1,1.283.0603h0l.0019.0021,7.84693,8.52058a.89668.89668,0,0,1-.03122,1.26771h0l-.01867.01728-.87329.79841a1.884,1.884,0,0,0-.09974,2.64473l3.74253,4.117a1.86844,1.86844,0,0,0,1.24757.61131h.07484a1.85443,1.85443,0,0,0,1.24753-.499L79.42336,62.713a1.86448,1.86448,0,0,0,.25612-2.62425ZM16.53588,15.59406a.9116.9116,0,0,1-.237-.46159L14.68955,5.70108a.90817.90817,0,0,1,1.13527-1.0354L25.069,7.1108a.75681.75681,0,0,1,.43669.262L36.98276,19.83556a.90257.90257,0,0,1-.01265,1.22258l-6.99845,7.62242a.927.927,0,0,1-1.31049.03666l-.03674-.03666ZM14.65226,69.3249l-.025.025a.90206.90206,0,0,1-1.272.09754l0,0h0L13.33,69.42475l-8.196-7.585a.919.919,0,0,1-.04989-1.2849l.01264-.01264a.91147.91147,0,0,1,1.28764-.059l.00982.00906.8483.81084,6.42465,5.91338.91067.83587a.90531.90531,0,0,1,.07437,1.27259Zm8.67015-15.29454L15.463,62.56356a.919.919,0,0,1-1.2849.04989l-2.39523-2.18318a.89656.89656,0,0,1-.06749-1.26612l.00007-.00007.01732-.01871,7.85948-8.53316a.919.919,0,0,1,1.28495-.04989l2.39522,2.18313a.89668.89668,0,0,1,.06717,1.26628Zm6.38731-1.69668a.90825.90825,0,0,1-1.28286.06427h0l-.00211-.0019-1.74667-1.62177a.90826.90826,0,0,1-.0643-1.28284l.00189-.00207,19.923-21.61961a1.87212,1.87212,0,0,0-.441-2.61058h0a1.87211,1.87211,0,0,0-2.316.11553L23.87132,46.95686a.912.912,0,0,1-1.28844.05828h0l-.009-.00843L21.4137,45.93377l-1.24731-1.1477L54.61045,7.37286a.75673.75673,0,0,1,.43669-.262l9.2566-2.44512a.90742.90742,0,0,1,1.10714.6489h0a.90722.90722,0,0,1,.01565.3865l-1.65922,9.43127a1.06618,1.06618,0,0,1-.22452.46159ZM53.375,50.81174,51.64091,52.421a.91188.91188,0,0,1-1.2889-.04075l-.00843-.00914-7.198-7.82206a.90546.90546,0,0,1,0-1.23506L44.755,41.555a.92705.92705,0,0,1,1.31052-.03674l.03679.03674,7.33539,7.97162a.9083.9083,0,0,1-.06017,1.28309l-.00219.00194Zm-4.77777-12.1634a.90541.90541,0,0,1,0-1.235l1.60929-1.759a.91736.91736,0,0,1,1.29676-.03892h0l.05057.05154,8.34593,9.1194L58.6523,45.92156,57.542,46.982a.90029.90029,0,0,1-1.2731-.01167l-.02436-.02579ZM64.59046,62.56356l-7.84693-8.5332a.89684.89684,0,0,1,.03135-1.26783l.01854-.01716,2.39536-2.18313a.919.919,0,0,1,1.2849.04985l7.847,8.53315a.89668.89668,0,0,1-.03135,1.26771h0l-.01859.01719-2.39522,2.18318a.91918.91918,0,0,1-1.28491-.04981ZM74.92,61.84,66.7736,69.43741a.92382.92382,0,0,1-1.29738-.06232l-.01264-.01265a.90825.90825,0,0,1,.06017-1.28306h0l.00008-.00006.002-.00186.89828-.82331,6.42467-5.91325.81093-.81093a.905.905,0,0,1,1.27985.00565l0,0h0l.03.03177a.87773.87773,0,0,1,.237.61127.9175.9175,0,0,1-.28655.66111Z" transform="translate(0.00002 -0.00005)"/><path class="cls-2" d="M75.20688,61.17862a.9176.9176,0,0,1-.28692.66116L66.77359,69.4372a.92382.92382,0,0,1-1.29738-.06232l-.01264-.01265a.90827.90827,0,0,1,.06019-1.28307l.00007-.00006.002-.00186.89828-.82331,6.42469-5.91325.81092-.81093a.90507.90507,0,0,1,1.27989.00564l.03.03182A.87794.87794,0,0,1,75.20688,61.17862Z" transform="translate(0.00002 -0.00005)"/><path class="cls-3" d="M68.27067,60.43006l-2.39522,2.18318a.91917.91917,0,0,1-1.285-.04989L56.74352,54.0302a.89684.89684,0,0,1,.03135-1.26784l.01854-.01715,2.39536-2.18314a.919.919,0,0,1,1.2849.0498l7.847,8.53317a.89666.89666,0,0,1-.03127,1.26766Z" transform="translate(0.00002 -0.00005)"/><path class="cls-4" d="M53.37523,50.8117l-1.734,1.60929a.9118.9118,0,0,1-1.28884-.04069h0l-.00007-.00006-.00842-.00915-7.19824-7.822a.90545.90545,0,0,1,0-1.23505L44.755,41.555a.92707.92707,0,0,1,1.31053-.03675l.03679.03675,7.33539,7.97161a.90831.90831,0,0,1-.06017,1.28309Z" transform="translate(0.00002 -0.00005)"/><path class="cls-5" d="M59.89983,44.78615,58.6523,45.92142,57.542,46.9818a.90029.90029,0,0,1-1.2731-.01167l-.02436-.02579-7.64727-8.296a.90541.90541,0,0,1,0-1.235l1.60929-1.759a.91736.91736,0,0,1,1.29676-.03892h0l.05057.05154Z" transform="translate(0.00002 -0.00005)"/><path class="cls-6" d="M36.97033,21.05824l-6.99867,7.6224a.92706.92706,0,0,1-1.31049.03675l-.03678-.03675L16.53588,15.59406a.9116.9116,0,0,1-.237-.46159L14.68955,5.70108a.90817.90817,0,0,1,1.13527-1.0354L25.069,7.1108a.75681.75681,0,0,1,.43669.262L36.98276,19.83556A.90259.90259,0,0,1,36.97033,21.05824Z" transform="translate(0.00002 -0.00005)"/><path class="cls-7" d="M65.42633,5.70108,63.7671,15.13235a1.06607,1.06607,0,0,1-.22452.46159L29.70972,52.33363a.90826.90826,0,0,1-1.28286.06428h0l-.00211-.00189-1.74667-1.62178a.90817.90817,0,0,1-.06436-1.28273h0l0-.00006.00189-.0021,19.923-21.61961a1.87212,1.87212,0,0,0-.441-2.61058h0a1.87212,1.87212,0,0,0-2.316.11552L23.87132,46.95682a.912.912,0,0,1-1.28841.05835h0l-.009-.00843L21.41374,45.9338l-1.24731-1.1477,34.444-37.41324a.75717.75717,0,0,1,.43669-.262l9.2566-2.44512a.90751.90751,0,0,1,1.107.64938v0a.90772.90772,0,0,1,.01562.38585Z" transform="translate(0.00002 -0.00005)"/><path class="cls-8" d="M23.32241,54.03036,15.463,62.56356a.919.919,0,0,1-1.2849.04989l-2.39523-2.18318a.89656.89656,0,0,1-.06749-1.26612l.00007-.00007.01732-.01871,7.85948-8.53316a.919.919,0,0,1,1.28495-.04989l2.39522,2.18313a.89668.89668,0,0,1,.06717,1.26628Z" transform="translate(0.00002 -0.00005)"/><path class="cls-9" d="M14.65217,69.3249l-.025.025a.902.902,0,0,1-1.27187.0976l-.0001-.00009-.02529-.02267-8.196-7.585a.919.919,0,0,1-.0499-1.2849l.01265-.01264a.9115.9115,0,0,1,1.28768-.059l.00978.00906.8483.81084,6.4246,5.91338.91067.83587A.90531.90531,0,0,1,14.65217,69.3249Z" transform="translate(0.00002 -0.00005)"/></g></svg>