<svg id="Lager_1" data-name="Lager 1" xmlns="http://www.w3.org/2000/svg" viewBox="0 0 64.2229 59.75"><defs><style>.cls-1{fill:#cecece;}</style></defs><title>1v1-swords</title><path class="cls-1" d="M63.86,48.15l-3-3.3a1.5,1.5,0,0,0-1-.49,1.44,1.44,0,0,0-1.08.4l-.73.67a.73.73,0,0,1-1-.05l-6.32-6.83a.74.74,0,0,1,0-1l5.6-5.18a1.5,1.5,0,0,0-2-2.21l-3.58,3.3a.73.73,0,0,1-1-.05l-6.5-7.06a.73.73,0,0,1,0-1l10.34-11.3.07-.11a1.10986,1.10986,0,0,0,.17-.3.85.85,0,0,0,.09-.22v-.13L56.01,1.66h0v-.6h0V.97L55.93.8V.68L55.8.56a.40008.40008,0,0,0-.1-.12l-.11-.1-.13-.1-.1-.07L55.21.09H55.1L54.93.03h-.69l-11.42,3-.21.08h0a1.45006,1.45006,0,0,0-.45.33h0L32.63,13.6a.73.73,0,0,1-1.03166.03834Q31.57847,13.61989,31.56,13.6L22.17,3.4h0a1.43016,1.43016,0,0,0-.44-.32h-.06L21.47,3,10.05,0H9.32l-.2.06h-.1a.80021.80021,0,0,0-.16.08l-.1.07L8.59.34V.4l-.1.12a.74971.74971,0,0,0-.07.12L8.34.76,8.28.9V.99h0v.6h0l2,11.72v.13a.85.85,0,0,0,.09.22.92.92,0,0,0,.18.3.14.14,0,0,0,.06.11L20.93,25.34a.73.73,0,0,1,0,1l-6.5,7.06a.73.73,0,0,1-1,.05l-3.58-3.3a1.5052,1.5052,0,0,0-2.25,2,1.37025,1.37025,0,0,0,.25.23l5.22,4.8h0l1,.92L7.24,45.39a.74.74,0,0,1-1,0l-.73-.67a1.5,1.5,0,0,0-1.08-.42,1.5,1.5,0,0,0-1,.49l-3,3.3a1.5,1.5,0,0,0,.08939,2.11943L.52,50.21h0l9.82,9.09a1.47,1.47,0,0,0,2.07785-.06587L12.44,59.21l3-3.3a1.48,1.48,0,0,0,.4-1.08,1.53,1.53,0,0,0-.48-1l-.73-.67a.72.72,0,0,1,0-1l6.29-6.83a.73.73,0,0,1,1,0l5.71,5.23a1.5052,1.5052,0,1,0,2.25-2h0a1.37025,1.37025,0,0,0-.25-.23l-3.58-3.3a.73.73,0,0,1,0-1l5.53-6a.74.74,0,0,1,1.046-.034q.01758.01647.034.034l5.53,6a.72.72,0,0,1,0,1l-3.66,3.31a1.5,1.5,0,0,0,2,2.21l5.68-5.23a.73.73,0,0,1,1,0l6.32,6.88a.72.72,0,0,1,0,1l-.7.64a1.51,1.51,0,0,0-.08,2.12l3,3.3a1.5,1.5,0,0,0,1,.49h.06a1.49,1.49,0,0,0,1-.4l9.9-9.11a1.49,1.49,0,0,0,.2111-2.09658L63.91,48.13ZM48.02,35.9l-1,.91h0l-.89.85a.72.72,0,0,1-1,0l-6.2-6.68a.73.73,0,0,1,0-1l1.29-1.41a.74.74,0,0,1,1.046-.034q.01758.01647.034.034ZM13.07,12.13,11.78,4.57a.73.73,0,0,1,.91-.83l7.41,2a.61.61,0,0,1,.35.21l9.2,10a.72.72,0,0,1,0,1l-5.62,6.04a.74.74,0,0,1-1.046.034q-.01758-.01646-.034-.034L13.26,12.5A.73.73,0,0,1,13.07,12.13ZM10.69,55.65,4.12,49.57a.74.74,0,0,1,0-1h0a.73.73,0,0,1,1,0l.68.65h0l5.13,4.68h0l.73.67a.73.73,0,0,1,.06,1h0a.72.72,0,0,1-1.01391.09377Zm.68-5.46L9.45,48.44a.72.72,0,0,1,0-1l6.3-6.84a.74.74,0,0,1,1,0l1.92,1.75a.72.72,0,0,1,0,1l-6.3,6.84A.74.74,0,0,1,11.37,50.19Zm10-9.49a.73.73,0,0,1-.05-1l16-17.33a1.5,1.5,0,0,0-2.21-2l-16,17.3a.73.73,0,0,1-1,0l-.93-.86h0l-1-.92L43.78,5.9a.61.61,0,0,1,.35-.21l7.42-2a.73.73,0,0,1,.9.83l-1.33,7.56a.84994.84994,0,0,1-.18.37L23.82,41.95a.73.73,0,0,1-1,.05Zm13.2-6,1.36-1.39a.74.74,0,0,1,1.046-.034q.01757.01647.034.034l5.88,6.39a.73.73,0,0,1,0,1L41.5,41.99a.73.73,0,0,1-1,0l-5.77-6.27a.73.73,0,0,1-.14-1Zm10.96,7.58,1.92-1.75a.74.74,0,0,1,1,0l6.29,6.84a.72.72,0,0,1,0,1l-1.92,1.75a.74.74,0,0,1-1,0l-6.29-6.84A.72.72,0,0,1,45.53,42.28Zm7,13.33h0a.73.73,0,0,1,.05-1l.72-.66h0l5.15-4.74h0l.65-.65a.73.73,0,0,1,1.03222-.01778L60.15,48.56h0a.72.72,0,0,1,0,1l-6.62,6.1a.74.74,0,0,1-1.04-.05Z" transform="translate(-0.0344)"/></svg>