<svg id="Lager_1" data-name="Lager 1" xmlns="http://www.w3.org/2000/svg" viewBox="0 0 24 24"><defs><style>.cls-1{fill:#5c5b61;}</style></defs><title>ArrowUp</title><path class="cls-1" d="M20.5,3H3.5A3.5,3.5,0,0,0,0,6.5v17A3.5,3.5,0,0,0,3.5,27h17A3.5,3.5,0,0,0,24,23.5V6.5A3.5,3.5,0,0,0,20.5,3ZM19,14.7a.51.51,0,0,1-.46.3H16v7.5a.5.5,0,0,1-.5.5h-7a.5.5,0,0,1-.5-.5V15H5.5A.51.51,0,0,1,5,14.7a.51.51,0,0,1,.09-.54l6.5-7a.53.53,0,0,1,.74,0l6.5,7A.51.51,0,0,1,19,14.7Z" transform="translate(0 -3)"/></svg>