<svg id="Lager_1" data-name="Lager 1" xmlns="http://www.w3.org/2000/svg" xmlns:xlink="http://www.w3.org/1999/xlink" viewBox="0 0 80.05063 61.55995"><defs><style>.cls-1{fill:#ffce00;}.cls-2{stroke-miterlimit:10;stroke-width:0.25px;fill:url(#Namnlös_övertoning);stroke:url(#Namnlös_övertoning_2);}</style><linearGradient id="Namnlös_övertoning" x1="-0.42121" y1="20.80518" x2="64.42026" y2="20.80518" gradientTransform="matrix(1, 0, 0, -1, 0.01121, 52)" gradientUnits="userSpaceOnUse"><stop offset="0" stop-color="#faee26"/><stop offset="1" stop-color="#ffa900"/></linearGradient><linearGradient id="Namnlös_övertoning_2" x1="-0.83973" y1="21.00582" x2="64.83959" y2="21.00582" xlink:href="#Namnlös_övertoning"/></defs><title>crown-fill</title><path class="cls-1" d="M71.97771,26.57511a3.86119,3.86119,0,0,0-7.66445.65016,4.02286,4.02286,0,0,0,.36259,1.66292l-8.32711,9.715a1.25055,1.25055,0,0,0,0,1.62541,3.22089,3.22089,0,0,1-1.21281,4.97626,3.172,3.172,0,0,1-3.1508-.33758,3.21478,3.21478,0,0,1,1.75045-5.82648,1.24825,1.24825,0,0,0,1.25031-1.1753,191.83462,191.83462,0,0,1,2.16305-19.14236h.125a5.11654,5.11654,0,0,0,4.77621-3.03827A5.22232,5.22232,0,0,0,56.07367,8.483a5.10441,5.10441,0,0,0-3.1508,2.23807,5.20633,5.20633,0,0,0,.21255,5.914L43.93308,30.38857a1.35611,1.35611,0,0,0,.11253,1.5629,4.61224,4.61224,0,0,1,1.08778,2.91324,4.4934,4.4934,0,0,1-5.72645,4.3261,4.40146,4.40146,0,0,1-2.86323-2.46313,4.51846,4.51846,0,0,1,2.23807-5.939,1.3442,1.3442,0,0,0,.73768-1.2003,1.87768,1.87768,0,0,0-.025-.25007L33.843,6.395a6.41912,6.41912,0,1,0-3.751,0L24.49065,29.3383a1.24907,1.24907,0,0,0,.71268,1.47544A4.50151,4.50151,0,0,1,26.75372,37.828a4.42486,4.42486,0,0,1-3.42587,1.5754,4.5174,4.5174,0,0,1-4.47613-4.51371,4.30107,4.30107,0,0,1,1.08777-2.91318,1.24441,1.24441,0,0,0,.11253-1.56289L10.84969,16.66015a5.118,5.118,0,1,0-7.15411,1.0986l.00229.00167a5.2169,5.2169,0,0,0,3.03827.98776h.08752A182.26146,182.26146,0,0,1,8.99922,37.89054a1.24824,1.24824,0,0,0,1.25031,1.17529,3.20772,3.20772,0,0,1,3.01327,4.11355,3.169,3.169,0,0,1-2.27558,2.188,3.21669,3.21669,0,0,1-3.28833-5.1388,1.25053,1.25053,0,0,0,0-1.62541l-8.38963-9.715a3.83706,3.83706,0,0,0-1.88065-5.09011A3.83706,3.83706,0,0,0-7.6615,25.67878,3.83707,3.83707,0,0,0-5.792,30.76373a4.04043,4.04043,0,0,0,1.62541.35009A53.661,53.661,0,0,1-.15311,42.27915a53.97381,53.97381,0,0,1,1.50038,11.778,1.25182,1.25182,0,0,0,.3626.93774,1.239,1.239,0,0,0,.92523.4001H61.4a1.30231,1.30231,0,0,0,1.28783-1.33784,54.468,54.468,0,0,1,5.46388-22.94332,3.86685,3.86685,0,0,0,3.826-4.53871ZM60.06218,52.83177H3.92293a57.44486,57.44486,0,0,0-4.3511-19.705l5.48889,6.41412a5.74366,5.74366,0,1,0,6.45164-2.90073c-.66267-8.48966-1.33784-13.891-1.9505-17.3419l7.8895,11.778a7.05589,7.05589,0,0,0,7.702,10.6527,6.91321,6.91321,0,0,0,4.67619-3.976,7.06268,7.06268,0,0,0-2.57566-8.75222L31.99256,9.63331l4.7387,19.39242a7.20006,7.20006,0,0,0-3.17581,5.889,7.05179,7.05179,0,1,0,14.10358.006v-.006a7.49227,7.49227,0,0,0-1.12528-3.81346l7.8895-11.778c-.61266,3.45087-1.25032,8.85224-1.9505,17.3419a5.75647,5.75647,0,1,0,6.45164,2.90073l5.48889-6.41412a57.30649,57.30649,0,0,0-4.35106,19.68Z" transform="translate(8.0141 6.16489)"/><path class="cls-2" d="M64.43147,33.11405a57.30666,57.30666,0,0,0-4.35111,19.68H3.94111A57.4451,57.4451,0,0,0-.41,33.08905l5.4889,6.41413a5.74361,5.74361,0,1,0,6.45164-2.90074c-.66267-8.48966-1.33784-13.891-1.9505-17.3419l7.8895,11.778a7.0559,7.0559,0,0,0,7.702,10.65271,6.91329,6.91329,0,0,0,4.67618-3.976A7.06272,7.06272,0,0,0,27.272,28.963l4.7387-19.36742L36.74944,28.988a7.20008,7.20008,0,0,0-3.17581,5.889,7.05179,7.05179,0,0,0,14.10358,0,7.49222,7.49222,0,0,0-1.12529-3.81347l7.88951-11.778c-.61266,3.4508-1.25032,8.85225-1.9505,17.34191a5.75644,5.75644,0,1,0,6.45164,2.90073Z" transform="translate(8.0141 6.16489)"/></svg>