<svg id="Lager_1" data-name="Lager 1" xmlns="http://www.w3.org/2000/svg" viewBox="0 0 64 49.2"><defs><style>.cls-1{fill:#cecece;}</style></defs><title>crown</title><path class="cls-1" d="M61.92,38.18a3.09,3.09,0,1,0-2.78-1.78l-6.66,7.77a1,1,0,0,0,0,1.3,2.57,2.57,0,1,1-2.09-.95,1,1,0,0,0,1-.94,152.32,152.32,0,0,1,1.73-15.31h.08a4.15,4.15,0,1,0-3.29-1.67l-7.36,11a1.08,1.08,0,0,0,.09,1.25,3.72,3.72,0,0,1,.87,2.33,3.59,3.59,0,1,1-5.08-3.26h0A1.08,1.08,0,0,0,39,36.76L34.48,18.41a5.13,5.13,0,1,0-3,0L27,36.76a1,1,0,0,0,.57,1.18,3.59,3.59,0,1,1-5.08,3.26,3.5,3.5,0,0,1,.87-2.33,1,1,0,0,0,.09-1.25l-7.36-11a4.09,4.09,0,1,0-3.29,1.67h.07a146.29,146.29,0,0,1,1.74,15.31,1,1,0,0,0,1,.94A2.56,2.56,0,1,1,13,47.08a2.55,2.55,0,0,1,.57-1.61,1,1,0,0,0,0-1.3L6.86,36.4a3.07,3.07,0,1,0-2.78,1.78h0A43.47,43.47,0,0,1,8.49,56.53a1,1,0,0,0,.29.75,1,1,0,0,0,.74.32h47a1,1,0,0,0,.74-.32,1,1,0,0,0,.29-.75,43.47,43.47,0,0,1,4.37-18.35ZM55.45,55.55H10.55A45.87,45.87,0,0,0,7.07,39.79l4.39,5.13a4.61,4.61,0,1,0,5.16-2.32c-.53-6.79-1.07-11.11-1.56-13.87l6.31,9.42a5.56,5.56,0,0,0-.9,3.05,5.64,5.64,0,1,0,8.74-4.71L33,21l3.79,15.51a5.74,5.74,0,0,0-2.54,4.71,5.64,5.64,0,0,0,11.28,0,5.92,5.92,0,0,0-.9-3.05l6.31-9.42c-.49,2.76-1,7.08-1.56,13.87a4.62,4.62,0,1,0,5.16,2.32l4.39-5.13A45.87,45.87,0,0,0,55.45,55.55Z" transform="translate(-1 -8.4)"/></svg>