<svg id="Lager_1" data-name="Lager 1" xmlns="http://www.w3.org/2000/svg" xmlns:xlink="http://www.w3.org/1999/xlink" viewBox="0 0 64.02243 49.23016"><defs><style>.cls-1{fill:#ffce00;}.cls-2{stroke-miterlimit:10;stroke-width:0.25px;fill:url(#Ny_övertoningsruta_1);stroke:url(#Ny_övertoningsruta_1-2);}</style><linearGradient id="Ny_övertoningsruta_1" x1="6.07001" y1="29.87502" x2="57.92999" y2="29.87502" gradientUnits="userSpaceOnUse"><stop offset="0" stop-color="#faee26"/><stop offset="1" stop-color="#ffa900"/></linearGradient><linearGradient id="Ny_övertoningsruta_1-2" x1="5.65209" y1="29.67438" x2="58.34909" y2="29.67438" xlink:href="#Ny_övertoningsruta_1"/></defs><title>crown-fill</title><path class="cls-1" d="M63.96546,26.18017a3.08817,3.08817,0,0,0-6.13.52,3.21742,3.21742,0,0,0,.29,1.33l-6.66,7.77a1.00019,1.00019,0,0,0,0,1.3,2.57607,2.57607,0,0,1-.97,3.98,2.53694,2.53694,0,0,1-2.52-.27,2.57117,2.57117,0,0,1,1.4-4.66.99835.99835,0,0,0,1-.94q.48-7.695,1.73-15.31h.1a4.09221,4.09221,0,0,0,3.82-2.43,4.1768,4.1768,0,0,0-4.78-5.76,4.08249,4.08249,0,0,0-2.52,1.79,4.164,4.164,0,0,0,.17,4.73l-7.36,11a1.08461,1.08461,0,0,0,.09,1.25,3.68884,3.68884,0,0,1,.87,2.33,3.5938,3.5938,0,0,1-4.58,3.46,3.52027,3.52027,0,0,1-2.29-1.97,3.61385,3.61385,0,0,1,1.79-4.75,1.07509,1.07509,0,0,0,.59-.96,1.50178,1.50178,0,0,0-.02-.2l-4.52-18.35a5.134,5.134,0,1,0-3,0l-4.48,18.35a.999.999,0,0,0,.57,1.18005,3.60031,3.60031,0,0,1,1.24,5.61,3.539,3.539,0,0,1-2.74,1.26,3.613,3.613,0,0,1-3.58-3.61005,3.44,3.44,0,0,1,.87-2.32995.99529.99529,0,0,0,.09-1.25l-7.36-11a4.09337,4.09337,0,1,0-5.72.88,4.17244,4.17244,0,0,0,2.43.79h.07a145.77175,145.77175,0,0,1,1.74,15.31.99835.99835,0,0,0,1,.94,2.56551,2.56551,0,0,1,2.41,3.29,2.53458,2.53458,0,0,1-1.82,1.75,2.5727,2.5727,0,0,1-2.63-4.11,1.00017,1.00017,0,0,0,0-1.3l-6.71-7.77a3.06887,3.06887,0,1,0-4.08,1.5,3.23131,3.23131,0,0,0,1.3.28,42.91829,42.91829,0,0,1,3.21,8.93,43.16849,43.16849,0,0,1,1.2,9.42,1.00119,1.00119,0,0,0,.29.75.99094.99094,0,0,0,.74.32h47a.99113.99113,0,0,0,.74-.32,1.00113,1.00113,0,0,0,.29-.75,43.56328,43.56328,0,0,1,4.37-18.35A3.0927,3.0927,0,0,0,63.96546,26.18017Zm-9.53,21h-44.9a45.94418,45.94418,0,0,0-3.48-15.76l4.39,5.13a4.59375,4.59375,0,1,0,5.16-2.32c-.53-6.79-1.07-11.11-1.56-13.87l6.31,9.42a5.64328,5.64328,0,0,0,6.16,8.52,5.52916,5.52916,0,0,0,3.74-3.18,5.64871,5.64871,0,0,0-2.06-7l3.79-15.49,3.79,15.51a5.75858,5.75858,0,0,0-2.54,4.71,5.64,5.64,0,1,0,11.28,0,5.99237,5.99237,0,0,0-.9-3.05l6.31-9.42c-.49,2.76-1,7.08-1.56,13.87a4.604,4.604,0,1,0,5.16,2.32l4.39-5.13A45.8337,45.8337,0,0,0,54.43549,47.18017Z" transform="translate(0.01121)"/><path class="cls-2" d="M57.93,31.41a45.83374,45.83374,0,0,0-3.48,15.74H9.55A45.94441,45.94441,0,0,0,6.07,31.39l4.39,5.13a4.59374,4.59374,0,1,0,5.16-2.32c-.53-6.79-1.07-11.11-1.56-13.87l6.31,9.42a5.64328,5.64328,0,0,0,6.16,8.52,5.52921,5.52921,0,0,0,3.74-3.18,5.64873,5.64873,0,0,0-2.06-7L32,12.6,35.79,28.11a5.75859,5.75859,0,0,0-2.54,4.71,5.64,5.64,0,0,0,11.28,0,5.99225,5.99225,0,0,0-.9-3.05l6.31-9.42c-.49,2.75994-1,7.08-1.56,13.87a4.604,4.604,0,1,0,5.16,2.32Z" transform="translate(0.01121)"/></svg>