<svg id="Lager_1" data-name="Lager 1" xmlns="http://www.w3.org/2000/svg" viewBox="0 0 64.03 49.23"><defs><style>.cls-1{fill:#ffc800;}</style></defs><title>crown-yellow</title><path class="cls-1" d="M60.92,29.78a3.09,3.09,0,1,0-3.07-3.11A3.22,3.22,0,0,0,58.14,28l-6.66,7.77a1,1,0,0,0,0,1.3,2.58,2.58,0,0,1-1,4A2.54,2.54,0,0,1,48,40.78a2.57,2.57,0,0,1,1.4-4.66,1,1,0,0,0,1-.94q.48-7.69,1.73-15.31h.1A4.09,4.09,0,0,0,56,17.44a4.18,4.18,0,0,0-4.78-5.76,4.08,4.08,0,0,0-2.52,1.79,4.16,4.16,0,0,0,.17,4.73l-7.36,11a1.08,1.08,0,0,0,.09,1.25,3.69,3.69,0,0,1,.87,2.33,3.59,3.59,0,0,1-4.58,3.46,3.52,3.52,0,0,1-2.29-2,3.61,3.61,0,0,1,1.79-4.75h0A1.07,1.07,0,0,0,38,28.36L33.48,10a5.13,5.13,0,1,0-3,0L26,28.36a1,1,0,0,0,.57,1.18,3.6,3.6,0,0,1,1.24,5.61,3.54,3.54,0,0,1-2.74,1.26,3.61,3.61,0,0,1-3.58-3.61,3.44,3.44,0,0,1,.87-2.33,1,1,0,0,0,.09-1.25l-7.36-11a4.09,4.09,0,1,0-5.72.88,4.17,4.17,0,0,0,2.43.79h.07A145.76,145.76,0,0,1,13.61,35.2a1,1,0,0,0,1,.94A2.57,2.57,0,0,1,17,39.43a2.53,2.53,0,0,1-1.82,1.75,2.57,2.57,0,0,1-2.63-4.11,1,1,0,0,0,0-1.3L5.86,28a3.07,3.07,0,1,0-4.08,1.5,3.23,3.23,0,0,0,1.3.28h0A43.42,43.42,0,0,1,7.49,48.13a1,1,0,0,0,.29.75,1,1,0,0,0,.74.32h47a1,1,0,0,0,.74-.32,1,1,0,0,0,.29-.75A43.56,43.56,0,0,1,60.92,29.78ZM54.45,47.15H9.55A46,46,0,0,0,6.07,31.39l4.39,5.13a4.59,4.59,0,1,0,5.16-2.32c-.53-6.79-1.07-11.11-1.56-13.87l6.31,9.42a5.64,5.64,0,0,0,6.16,8.52,5.53,5.53,0,0,0,3.74-3.18,5.65,5.65,0,0,0-2.06-7L32,12.6l3.79,15.51a5.76,5.76,0,0,0-2.54,4.71,5.64,5.64,0,1,0,11.28,0,6,6,0,0,0-.9-3.05l6.31-9.42c-.49,2.76-1,7.08-1.56,13.87a4.6,4.6,0,1,0,5.16,2.32l4.39-5.13A45.83,45.83,0,0,0,54.45,47.15Z" transform="translate(0 0.03)"/></svg>