<svg id="Lager_1" data-name="Lager 1" xmlns="http://www.w3.org/2000/svg" viewBox="0 0 62.22003 85.48907"><defs><style>.cls-1{fill:none;stroke:#fff;stroke-width:2px;}.cls-1,.cls-3{stroke-miterlimit:10;}.cls-2{fill:#52268f;}.cls-3{fill:#fff;stroke:#52268f;stroke-width:3px;}</style></defs><title>EmoteRacer_Icon</title><path class="cls-1" d="M55.75,1.914V1H1V74.97455h.46l5.7,9.51452H61.22V63.44049l-1-1.67132L58.2,58.38293h3.02V37.23l-1-1.67139-2.02-3.3862h3.02V11.12384ZM52.03,19.41962H22.16V30.353H52.03V45.63016H22.16V56.55487H52.03V71.73621H4.72V4.23822H52.03Z"/><path class="cls-2" d="M55.75,1.914V1H1V74.97455h.46l5.7,9.51452H61.22V63.44049l-1-1.67132L58.2,58.38293h3.02V37.23l-1-1.67139-2.02-3.3862h3.02V11.12384ZM52.03,19.41962H22.16V30.353H52.03V45.63016H22.16V56.55487H52.03V71.73621H4.72V4.23822H52.03Z"/><polygon class="cls-3" points="22.16 19.42 22.16 30.353 52.03 30.353 52.03 45.63 22.16 45.63 22.16 56.555 52.03 56.555 52.03 71.736 4.72 71.736 4.72 4.238 52.03 4.238 52.03 19.42 22.16 19.42"/></svg>