<svg id="Lager_1" data-name="Lager 1" xmlns="http://www.w3.org/2000/svg" viewBox="0 0 98.6 97.41"><defs><style>.cls-1{fill:#5c5b61;}</style></defs><title>EnterKey</title><path class="cls-1" d="M91.06,13.8H51.55A8.25,8.25,0,0,0,43.32,22V50a7.75,7.75,0,0,1-7.76,7.76H8.46A7.77,7.77,0,0,0,.7,65.6V103a8.25,8.25,0,0,0,8.24,8.23H91.06A8.25,8.25,0,0,0,99.3,103V22A8.25,8.25,0,0,0,91.06,13.8Zm-24,70.07a3.62,3.62,0,0,1-3.7,3.58h-34c-.24,0-.36.24-.12.36l5,5a.58.58,0,0,1,0,.84l-3.46,3.46a.57.57,0,0,1-.83,0L19.68,86.85a3.6,3.6,0,0,1,0-5.13l10-10a.57.57,0,0,1,.83,0L34,75.15A.58.58,0,0,1,34,76l-5,5a.23.23,0,0,0,.12.36H60.39a.56.56,0,0,0,.59-.6V69.18a.56.56,0,0,1,.6-.59h4.89a.56.56,0,0,1,.6.59Zm22.08-39a.32.32,0,0,1-.35.36H85.69a.32.32,0,0,1-.36-.36V30.63a2.7,2.7,0,0,0-2.74-2.75H69.1a.32.32,0,0,1-.36-.36v-3.1a.32.32,0,0,1,.36-.36H82.59a6.55,6.55,0,0,1,6.56,6.57Z" transform="translate(-0.7 -13.8)"/></svg>