<svg id="Lager_1" data-name="Lager 1" xmlns="http://www.w3.org/2000/svg" viewBox="0 0 114.94 101.68"><defs><style>.cls-1{fill:#2c416b;}</style></defs><title>solo-color</title><path class="cls-1" d="M115.2,50.17,66.54,1.54a2.18,2.18,0,0,0-3.08,0L46.88,18.15a2.18,2.18,0,0,1-3.08,0L27.19,1.54a2.18,2.18,0,0,0-3.08,0L6,19.69,1.54,24.15a2.18,2.18,0,0,0,0,3.08L6,31.69,24.51,50.18a2.18,2.18,0,0,1,0,3.07L6,71.79,1.54,76.25a2.18,2.18,0,0,0,0,3.08L6,83.79l18.15,18.15a2.18,2.18,0,0,0,3.08,0L43.8,85.27a2.18,2.18,0,0,1,3.08,0l16.58,16.61a2.18,2.18,0,0,0,3.08,0L115.2,53.25A2.18,2.18,0,0,0,115.2,50.17ZM13.48,76.23l23-23a2.18,2.18,0,0,0,0-3.08l-23-22.93a2.18,2.18,0,0,1,0-3.07L24.11,13.48a2.18,2.18,0,0,1,3.08,0L39.38,25.67l6,6,18.5,18.5a2.18,2.18,0,0,1,0,3.08L45.34,71.79h0L27.19,89.94a2.18,2.18,0,0,1-3.08,0L13.48,79.31A2.18,2.18,0,0,1,13.48,76.23ZM75.82,50.17,52.89,27.24a2.18,2.18,0,0,1,0-3.07L63.46,13.49a2.18,2.18,0,0,1,3.08,0l36.72,36.69a2.18,2.18,0,0,1,0,3.08L66.54,89.94a2.18,2.18,0,0,1-3.08,0L52.85,79.31a2.19,2.19,0,0,1,0-3.07l23-23A2.19,2.19,0,0,0,75.82,50.17Z" transform="translate(-0.9 -0.9)"/></svg>