<svg id="Lager_1" data-name="Lager 1" xmlns="http://www.w3.org/2000/svg" viewBox="0 0 116.74 103.42"><defs><style>.cls-1{fill:#cecece;}</style></defs><title>solo</title><path class="cls-1" d="M116.74,51.71,65,0,45.34,19.69,25.65,0,6,19.69l-6,6,6,6L26.05,51.71,6,71.79l-6,6,6,6,19.69,19.69L45.34,83.73,65,103.42ZM11.94,77.77,38,51.71l-26.05-26L25.65,11.94,39.38,25.67l6,6L65.42,51.71,45.34,71.79l0,0L25.65,91.48ZM77.36,51.71l-26-26L65,11.94,104.8,51.71,65,91.48,51.32,77.77Z" transform="translate(0 0)"/></svg>