<svg id="Lager_1" data-name="Lager 1" xmlns="http://www.w3.org/2000/svg" xmlns:xlink="http://www.w3.org/1999/xlink" viewBox="0 0 80.01981 70.78769"><defs><style>.cls-1{fill:#297de2;}.cls-2,.cls-3{stroke-miterlimit:10;stroke-width:0.25px;}.cls-2{fill:url(#Namnlös_övertoning);stroke:url(#Namnlös_övertoning_2);}.cls-3{fill:url(#Namnlös_övertoning_3);stroke:url(#Namnlös_övertoning_4);}</style><linearGradient id="Namnlös_övertoning" x1="30.18755" y1="-46.36168" x2="66.1636" y2="-46.36168" gradientTransform="matrix(1, 0, 0, -1, -55.79961, -40.9996)" gradientUnits="userSpaceOnUse"><stop offset="0" stop-color="#2b5187"/><stop offset="1" stop-color="#056ace"/></linearGradient><linearGradient id="Namnlös_övertoning_2" x1="30.06255" y1="-46.36168" x2="66.2886" y2="-46.36168" xlink:href="#Namnlös_övertoning"/><linearGradient id="Namnlös_övertoning_3" x1="57.60393" y1="-46.36168" x2="93.58097" y2="-46.36168" xlink:href="#Namnlös_övertoning"/><linearGradient id="Namnlös_övertoning_4" x1="57.47893" y1="-46.36168" x2="93.70597" y2="-46.36168" xlink:href="#Namnlös_övertoning"/></defs><title>solo-fill</title><path class="cls-1" d="M45.65119,4.28989l-33.878-33.857a1.51687,1.51687,0,0,0-2.14427,0L-1.91438-18.00295a1.51692,1.51692,0,0,1-2.14433,0L-15.62306-29.56713a1.517,1.517,0,0,0-2.1444,0L-30.3759-16.93079-33.481-13.82567a1.51691,1.51691,0,0,0,0,2.14432l3.10512,3.1052,12.887,12.873a1.51484,1.51484,0,0,1,.007,2.13738L-30.37608,19.3421l-3.10512,3.1052a1.51691,1.51691,0,0,0,0,2.14432l15.74126,15.74125a1.51691,1.51691,0,0,0,2.14432,0L-4.05926,28.727a1.51691,1.51691,0,0,1,2.14432,0L9.6284,40.29114a1.51687,1.51687,0,0,0,2.14427,0l33.878-33.857A1.51668,1.51668,0,0,0,45.65119,4.28989Zm-61.274,27.68855a1.517,1.517,0,0,1-2.1444,0L-25.168,24.57762a1.51693,1.51693,0,0,1,0-2.14432L-9.16894,6.43424a1.51691,1.51691,0,0,0,0-2.14432L-25.168-11.67437a1.51483,1.51483,0,0,1,0-2.13738l7.40077-7.44258a1.517,1.517,0,0,1,2.1444,0L9.92139,4.28989a1.51707,1.51707,0,0,1,0,2.14433ZM37.33836,6.43422,11.77322,31.97844a1.51685,1.51685,0,0,1-2.14427,0L2.242,24.57765a1.52141,1.52141,0,0,1,0-2.13738l15.99914-16.006a1.5233,1.5233,0,0,0-.007-2.14432L2.26987-11.67437a1.51487,1.51487,0,0,1-.007-2.13738l7.366-7.4356a1.51685,1.51685,0,0,1,2.14428-.007L37.33831,4.28989A1.539,1.539,0,0,1,37.33836,6.43422Z" transform="translate(33.92503 30.01098)"/><path class="cls-2" d="M9.92136,6.43424-15.62306,31.97846a1.517,1.517,0,0,1-2.1444,0l-7.40076-7.40081a1.51692,1.51692,0,0,1,0-2.14433l15.99905-15.999a1.51692,1.51692,0,0,0,0-2.14433L-25.16822-11.67435a1.5148,1.5148,0,0,1,0-2.13737l7.40076-7.44258a1.517,1.517,0,0,1,2.1444,0L9.92116,4.28992A1.5196,1.5196,0,0,1,9.92136,6.43424Z" transform="translate(33.92503 30.01098)"/><path class="cls-3" d="M37.33751,6.43424,11.79329,31.97846a1.51692,1.51692,0,0,1-2.14433,0L2.24815,24.57765a1.51692,1.51692,0,0,1,0-2.14433l15.99913-15.999a1.51707,1.51707,0,0,0,0-2.14433L2.24815-11.67435a1.5148,1.5148,0,0,1,0-2.13737L9.649-21.2543a1.51692,1.51692,0,0,1,2.14433,0L37.33751,4.28992A1.51687,1.51687,0,0,1,37.33751,6.43424Z" transform="translate(33.92503 30.01098)"/></svg>