<svg id="Lager_1" data-name="Lager 1" xmlns="http://www.w3.org/2000/svg" xmlns:xlink="http://www.w3.org/1999/xlink" viewBox="0 0 12.16975 10.76573"><defs><style>.cls-1{fill:#297de2;}.cls-2,.cls-3{stroke-miterlimit:10;stroke-width:0.25px;}.cls-2{fill:url(#Ny_övertoningsruta_1);stroke:url(#Ny_övertoningsruta_1-2);}.cls-3{fill:url(#Ny_övertoningsruta_1-3);stroke:url(#Ny_övertoningsruta_1-4);}</style><linearGradient id="Ny_övertoningsruta_1" x1="57.06386" y1="58.37929" x2="62.5354" y2="58.37929" gradientUnits="userSpaceOnUse"><stop offset="0" stop-color="#2b5187"/><stop offset="1" stop-color="#056ace"/></linearGradient><linearGradient id="Ny_övertoningsruta_1-2" x1="56.93886" y1="58.37929" x2="62.6604" y2="58.37929" xlink:href="#Ny_övertoningsruta_1"/><linearGradient id="Ny_övertoningsruta_1-3" x1="61.23343" y1="58.37929" x2="66.70498" y2="58.37929" xlink:href="#Ny_övertoningsruta_1"/><linearGradient id="Ny_övertoningsruta_1-4" x1="61.10843" y1="58.37929" x2="66.82998" y2="58.37929" xlink:href="#Ny_övertoningsruta_1"/></defs><title>solo-fill</title><path class="cls-1" d="M67.90186,58.21623,62.74955,53.0671a.23069.23069,0,0,0-.32611,0l-1.75556,1.75873a.2307.2307,0,0,1-.32612,0L58.583,53.0671a.23071.23071,0,0,0-.32613,0l-1.91755,1.92179-.47224.47224a.2307.2307,0,0,0,0,.32612l.47224.47225,1.95991,1.95779a.23038.23038,0,0,1,.00106.32506l-1.961,1.96308-.47224.47225a.2307.2307,0,0,0,0,.32612l2.394,2.394a.2307.2307,0,0,0,.32612,0l1.7545-1.76508a.2307.2307,0,0,1,.32612,0l1.75556,1.75873a.23069.23069,0,0,0,.32611,0l5.15231-5.14913A.2307.2307,0,0,0,67.90186,58.21623Zm-9.31883,4.211a.23071.23071,0,0,1-.32613,0l-1.12554-1.12555a.2307.2307,0,0,1,0-.32612l2.43321-2.43321a.2307.2307,0,0,0,0-.32612l-2.43321-2.42792a.23038.23038,0,0,1,0-.32506l1.12554-1.1319a.23071.23071,0,0,1,.32613,0l3.88488,3.88488a.23072.23072,0,0,1,0,.32612Zm8.05458-3.88488-3.88806,3.88488a.23069.23069,0,0,1-.32611,0L61.3,61.30168a.23138.23138,0,0,1,0-.32506l2.43322-2.43427a.23167.23167,0,0,0-.00106-.32612l-2.42792-2.42792a.23039.23039,0,0,1-.00106-.32506l1.12026-1.13084a.23069.23069,0,0,1,.32611-.00106l3.88806,3.88488A.2307.2307,0,0,1,66.63761,58.54235Z" transform="translate(-55.79961 -52.9996)"/><path class="cls-2" d="M62.46791,58.54235,58.583,62.42723a.23071.23071,0,0,1-.32613,0l-1.12554-1.12555a.2307.2307,0,0,1,0-.32612l2.43321-2.43321a.2307.2307,0,0,0,0-.32612l-2.43321-2.42792a.23038.23038,0,0,1,0-.32506l1.12554-1.1319a.23071.23071,0,0,1,.32613,0l3.88488,3.88488A.23072.23072,0,0,1,62.46791,58.54235Z" transform="translate(-55.79961 -52.9996)"/><path class="cls-3" d="M66.63748,58.54235,62.7526,62.42723a.2307.2307,0,0,1-.32612,0l-1.12555-1.12555a.2307.2307,0,0,1,0-.32612l2.43322-2.43321a.23072.23072,0,0,0,0-.32612l-2.43322-2.42792a.23038.23038,0,0,1,0-.32506l1.12555-1.1319a.2307.2307,0,0,1,.32612,0l3.88488,3.88488A.2307.2307,0,0,1,66.63748,58.54235Z" transform="translate(-55.79961 -52.9996)"/></svg>