<svg id="Lager_1" data-name="Lager 1" xmlns="http://www.w3.org/2000/svg" viewBox="0 0 114.93403 101.67404"><defs><style>.cls-1{fill:#cecece;}</style></defs><title>solo</title><path class="cls-1" d="M114.3,49.27,65.64.64a2.18,2.18,0,0,0-3.08,0L45.98,17.25a2.18,2.18,0,0,1-3.08,0L26.29.64a2.18,2.18,0,0,0-3.08,0L5.1,18.79.64,23.25a2.18,2.18,0,0,0,0,3.08L5.1,30.79,23.61,49.28a2.18,2.18,0,0,1,0,3.07L5.1,70.89.64,75.35a2.18,2.18,0,0,0,0,3.08L5.1,82.89l18.15,18.15a2.18,2.18,0,0,0,3.08,0L42.9,84.37a2.18,2.18,0,0,1,3.08,0l16.58,16.61a2.18,2.18,0,0,0,3.08,0L114.3,52.35A2.18,2.18,0,0,0,114.3,49.27ZM12.58,75.33l23-23a2.18,2.18,0,0,0,0-3.08l-23-22.93a2.18,2.18,0,0,1,0-3.07L23.21,12.58a2.18,2.18,0,0,1,3.08,0L38.48,24.77l6,6,18.5,18.5a2.18,2.18,0,0,1,0,3.08L44.44,70.89h0L26.29,89.04a2.18,2.18,0,0,1-3.08,0L12.58,78.41A2.18,2.18,0,0,1,12.58,75.33ZM74.92,49.27,51.99,26.34a2.18,2.18,0,0,1,0-3.07L62.56,12.59a2.18,2.18,0,0,1,3.08,0l36.72,36.69a2.18,2.18,0,0,1,0,3.08L65.64,89.04a2.18,2.18,0,0,1-3.08,0L51.95,78.41a2.19,2.19,0,0,1,0-3.07l23-23A2.19,2.19,0,0,0,74.92,49.27Z" transform="translate(-0.00298 -0.00298)"/></svg>