<svg xmlns="http://www.w3.org/2000/svg" viewBox="0 0 513 514"><defs><style>.cls-1{stroke:red;stroke-miterlimit:10;}.cls-2{fill:#662d91;}.cls-3{fill:#52268f;}.cls-4{fill:#fff;}</style></defs><title>TTVGUESSER_LOGO_v0.2</title><g id="Lager_1" data-name="Lager 1"><rect class="cls-1" x="0.5" y="0.5" width="512" height="513"/></g><g id="Lager_2" data-name="Lager 2"><polygon class="cls-2" points="61.13 279.74 25.77 279.74 25.77 220.77 11.52 220.77 11.52 186.92 74.87 186.92 74.87 220.77 61.13 220.77 61.13 279.74"/><polygon class="cls-2" points="110.67 279.74 75.32 279.74 75.32 220.77 61.07 220.77 61.07 186.92 124.42 186.92 124.42 220.77 110.67 220.77 110.67 279.74"/><path class="cls-2" d="M162.77,279.74H121.1l-12.58-92.82h66.57Zm-24.2-20h6.68L146,254h-8.23Z" transform="translate(1 0)"/><polygon class="cls-2" points="224.23 279.74 160.72 279.74 160.72 186.92 221.71 186.92 221.71 220.77 196.03 220.77 196.03 221.77 224.23 221.77 224.23 279.74"/><rect class="cls-2" x="211.23" y="186.92" width="63.05" height="92.81"/><polygon class="cls-2" points="316.93 279.74 261.08 279.74 261.08 186.92 316.43 186.92 316.43 220.77 315.42 220.77 315.42 245.94 316.93 245.94 316.93 279.74"/><polygon class="cls-2" points="362.55 279.74 302.52 279.74 302.52 237.08 311 237.08 303.02 231.06 303.02 186.92 362.1 186.92 362.1 228.57 355.9 228.57 362.55 233.57 362.55 279.74"/><polygon class="cls-2" points="409.18 279.74 349.15 279.74 349.15 237.08 357.62 237.08 349.65 231.06 349.65 186.92 408.73 186.92 408.73 228.57 402.53 228.57 409.18 233.57 409.18 279.74"/><polygon class="cls-2" points="451.63 279.74 395.78 279.74 395.78 186.92 451.13 186.92 451.13 220.77 450.12 220.77 450.12 245.94 451.63 245.94 451.63 279.74"/><polygon class="cls-2" points="505.16 279.74 437.22 279.74 437.22 202.83 454.37 186.92 499.47 186.92 499.47 253.2 495.5 253.2 505.16 279.74"/><path class="cls-3" d="M63.87,210.77H50.13v59H34.77v-59H20.52V196.92H63.87Z" transform="translate(1 0)"/><path class="cls-4" d="M51.63,271.24H33.27v-59H19V195.42H65.37v16.85H51.63Zm-15.36-3H48.63v-59H62.37V198.42H22v10.85H36.27Z" transform="translate(1 0)"/><path class="cls-3" d="M113.42,210.77H99.67v59H84.32v-59H70.07V196.92h43.35Z" transform="translate(1 0)"/><path class="cls-4" d="M101.17,271.24H82.82v-59H68.57V195.42h46.35v16.85H101.17Zm-15.35-3H98.17v-59h13.75V198.42H71.57v10.85H85.82Z" transform="translate(1 0)"/><path class="cls-3" d="M148,196.92h15.66L154,269.74H129.84L120,196.92h15.91l6,56Z" transform="translate(1 0)"/><path class="cls-4" d="M155.32,271.24H128.53l-10.28-75.82h19l4.7,43.54,4.74-43.54h18.72Zm-24.17-3h21.54L162,198.42h-12.6l-7.44,68.36-7.39-68.36H121.69Z" transform="translate(1 0)"/><path d="M198.12,255.94V244.71h-6.19V231.77h21.3v38H169.72V196.92h41v13.85H185v45.17Z" transform="translate(1 0)"/><path class="cls-4" d="M214.73,271.24H168.22V195.42h44v16.85H186.53v42.17h10.09v-8.23h-6.19V230.27h24.3Zm-43.51-3h40.51v-35h-18.3v9.94h6.19v14.23H183.53V209.27h25.68V198.42h-38Z" transform="translate(1 0)"/><path d="M263.28,269.74h-43V196.92h15.25v59H248v-59h15.31Z" transform="translate(1 0)"/><path class="cls-4" d="M264.78,271.24h-46V195.42H237v59h9.49v-59h18.31Zm-43-3h40V198.42H249.47v59H234v-59H221.73Z" transform="translate(1 0)"/><path d="M270.08,196.92h35.35v13.85H285.18v14h19.24v13.59h-19v17.53h20.55v13.8H270.08Z" transform="translate(1 0)"/><path class="cls-4" d="M307.43,271.24H268.58V195.42h38.35v16.85H286.68v11h19.24v16.59h-19v14.53h20.55Zm-35.85-3h32.85v-10.8H283.88V236.91h19V226.32H283.68v-17h20.25V198.42H271.58Z" transform="translate(1 0)"/><path d="M351.55,269.74h-40V247.08h15.26v8.86h9.46V244.36L312,226.08V196.92H351.1v21.65H337.25v-7.75h-10v9.52l24.27,18.23Z" transform="translate(1 0)"/><path class="cls-4" d="M353.05,271.24H310V245.58h18.26v8.86h6.46V245.1l-24.22-18.28v-31.4H352.6v24.65H335.75v-7.75h-7v7.27l24.27,18.23Zm-40-3h37V239.31l-24.27-18.22V209.32h13v7.75H349.6V198.42H313.52v26.91l24.22,18.28v13.83H325.28v-8.86H313Z" transform="translate(1 0)"/><path d="M398.18,269.74h-40V247.08h15.26v8.86h9.46V244.36l-24.22-18.28V196.92h39.08v21.65H383.88v-7.75h-10v9.52l24.27,18.23Z" transform="translate(1 0)"/><path class="cls-4" d="M399.68,271.24h-43V245.58h18.26v8.86h6.46V245.1l-24.22-18.28v-31.4h42.08v24.65H382.38v-7.75h-7v7.27l24.27,18.23Zm-40-3h37V239.31l-24.27-18.22V209.32h13v7.75h10.85V198.42H360.15v26.91l24.22,18.28v13.83H371.91v-8.86H359.65Z" transform="translate(1 0)"/><path d="M404.78,196.92h35.35v13.85H419.88v14h19.24v13.59h-19v17.53h20.55v13.8H404.78Z" transform="translate(1 0)"/><path class="cls-4" d="M442.13,271.24H403.28V195.42h38.35v16.85H421.38v11h19.24v16.59h-19v14.53h20.55Zm-35.85-3h32.85v-10.8H418.58V236.91h19V226.32H418.38v-17h20.25V198.42H406.28Z" transform="translate(1 0)"/><path d="M474.57,269.74,465.5,243.4h-4v26.34H446.22V207.19l11.08-10.27h31.17V243.2h-8.26l9.67,26.54Zm-1.36-40v-19H461.48v19Z" transform="translate(1 0)"/><path class="cls-4" d="M492,271.24H473.5l-9.07-26.34H463v26.34H444.72v-64.7l12-11.12H490V244.7h-7.62Zm-16.38-3h12.09l-9.66-26.54H487V198.42H457.89l-10.17,9.43v60.39H460V241.9h6.6Zm-.93-37H460v-22h14.73Zm-11.73-3h8.73v-16H463Z" transform="translate(1 0)"/></g></svg>