<svg id="Lager_1" data-name="Lager 1" xmlns="http://www.w3.org/2000/svg" viewBox="0 0 32 32"><defs><style>.cls-1{fill:#cecece;}</style></defs><title>user</title><path class="cls-1" d="M28.75,27.82A16,16,0,1,0,1,17,15.93,15.93,0,0,0,5.24,27.81,1.37,1.37,0,0,0,5.4,28a15.93,15.93,0,0,0,23.17,0A.86.86,0,0,0,28.75,27.82ZM17,3A14,14,0,0,1,28.49,25a11.93,11.93,0,0,0-7.57-7.9,6.5,6.5,0,1,0-7.85,0A11.94,11.94,0,0,0,5.5,25,14,14,0,0,1,17,3Zm0,13.41a4.5,4.5,0,1,1,4.5-4.5A4.51,4.51,0,0,1,17,16.41ZM7.12,26.91a10,10,0,0,1,19.74,0,14,14,0,0,1-19.74,0Z" transform="translate(-1 -1)"/></svg>